<?xml version="1.0" standalone="no"?>
<!DOCTYPE svg PUBLIC "-//W3C//DTD SVG 1.1//EN" "http://www.w3.org/Graphics/SVG/1.1/DTD/svg11.dtd" >
<svg xmlns="http://www.w3.org/2000/svg">
<metadata>
This is a custom SVG font generated by IcoMoon.
<iconset grid="16"></iconset>
</metadata>
<defs>
<font id="Groupon" horiz-adv-x="512" >
<font-face units-per-em="512" ascent="480" descent="-32" />
<missing-glyph horiz-adv-x="512" />
<glyph class="hidden" unicode="&#xf000;" d="M0,480L 512 -32L0 -32 z" horiz-adv-x="0" />
<glyph unicode="&#xe000;" d="M 479.66,275.917c-1.171,3.598-4.549,6.057-8.334,6.057L 311.987,281.974 L 262.668,433.448
	c-1.177,3.597-4.543,6.044-8.329,6.050c-3.78,0.006-7.156-2.438-8.332-6.038l-49.596-151.486L 37.348,281.974 c-3.785,0-7.164-2.454-8.333-6.050
	c-1.168-3.603, 0.115-7.57, 3.171-9.801l 128.717-93.759l-49.595-152.322c-1.175-3.598, 0.115-7.57, 3.177-9.803
	c 3.063-2.224, 7.237-2.224, 10.301,0l 129.542,94.046l 129.276-94.046c 1.539-1.119, 3.343-1.68, 5.151-1.68
	c 1.805,0, 3.612,0.561, 5.153,1.68c 3.088,2.243, 4.357,6.184, 3.186,9.803l-49.604,152.318l 128.987,93.756
	C 479.54,268.34, 480.828,272.315, 479.66,275.917z"  />
<glyph unicode="&#xe001;" d="M 256,448C 132.32,448, 32,347.712, 32,224s 100.32-224, 224-224s 224,100.288, 224,224S 379.68,448, 256,448z M 350.464,265.6
			c 22.944,0, 41.568-18.56, 41.568-41.568c0-22.976-18.624-41.632-41.568-41.632c-23.072,0-41.664,18.656-41.664,41.632
			C 308.8,247.040, 327.392,265.6, 350.464,265.6z M 256,28.8c-107.808,0-195.2,87.36-195.2,195.2l 0.32,0 C 61.088,225.088, 60.8,226.112, 60.8,227.2
			c0,53.888, 43.68,97.6, 97.6,97.6S 256,281.088, 256,227.2C 256,226.112, 255.712,225.088, 255.68,224L 256.32,224 c 1.728-52.384, 44.448-94.368, 97.28-94.368
			S 449.12,171.616, 450.88,224l 0.32,0 C 451.2,116.192, 363.808,28.8, 256,28.8z M 158.432,257.6C 139.808,257.6, 124.8,242.624, 124.8,224.032S 139.808,190.4, 158.432,190.4
			C 176.96,190.4, 192,205.44, 192,224.032S 176.96,257.6, 158.432,257.6z"  />
<glyph unicode="&#xe002;" d="M 80,400c-22-22-22-66,0-88l 88-88L 80,136 c-22-22-22-66,0-88s 66-22, 88,0l 88,88l 88-88c 22-22, 66-22, 88,0s 22,66,0,88L 344,224 l 88,88c 22,22, 22,66,0,88s-66,22-88,0L 256,312L 168,400C 146,422, 102,422, 80,400z"  />
<glyph unicode="&#xe003;" d="M 438.955,342.955l-59.499-59.52l-53.333,10.667l-10.667,53.333l 59.499,59.52c-8.747,2.645-17.877,4.48-27.499,4.48c-52.992,0-96-42.987-96-96 l0-32 l-146.709-119.040c-27.883-27.627-23.787-67.797,0-91.669c 23.787-23.915, 63.787-27.733, 91.669,0l 119.040,146.709l 32,0 c 53.035,0, 96,42.987, 96,96 C 443.456,325.077, 441.621,334.187, 438.955,342.955z"  />
<glyph unicode="&#xe004;" d="M 138.816,196.16c 33.216,0, 60.192-26.976, 60.192-60.192l 21.92,0 c 1.472,9.728-0.96,19.936-8.416,27.36
			l-16.96,16.928l 101.248,101.28l 23.168-23.168c 12.224-12.192, 32.192-12.192, 44.448,0l 66.624,66.624c 12.192,12.224, 12.192,32.224,0,44.416l-88.832,88.832
			c-12.224,12.192-32.224,12.192-44.416,0L 231.168,391.648c-12.224-12.192-12.224-32.192,0-44.416l 23.136-23.136L 153.024,222.848L 130.080,245.792
			c-12.448,12.448-32.8,12.448-45.248,0L 32.896,193.856C 37.952,195.232, 43.104,196.16, 48.544,196.16L 138.816,196.16 z M 464.928,163.072l-86.464,0 
			c-17.6,0-32-14.4-32-32l0-28.192 L 165.92,102.88 l0,28.192 c0,17.6-14.4,32-32,32L 47.456,163.072 c-17.6,0-32-14.4-32-32l0-116.576 c0-17.6, 14.4-32, 32-32l 86.464,0 
			c 17.6,0, 32,14.4, 32,32l0,31.2 l 180.576,0 l0-31.2 c0-17.6, 14.4-32, 32-32l 86.464,0 c 17.6,0, 32,14.4, 32,32l0,116.576 
			C 496.928,148.672, 482.528,163.072, 464.928,163.072z"  />
<glyph unicode="&#xe005;" d="M 258.181,254.091l 94.386,29.34L 256,351.723L 256,480 L 152.532,405.466L 32,448l 42.533-120.533L0,224l 128,0 l 68.567-96.568l 29.341,94.387 L 448-32l 64,64L 258.181,254.091z M 202.327,277.672l-19.579-62.986l-38.084,53.010L 78.712,267.696 l 39.447,52.861L 96.979,383.021l 62.464-21.182 l 52.862,39.447l0-65.952 l 53.008-38.084L 202.327,277.672z"  />
<glyph unicode="&#xe006;" d="M 253.632,480c0-165.664, 199.52-255.648, 199.52-255.648S 253.632,148.256, 253.632-32
	c0,180.256-194.784,256.64-194.784,256.64S 253.632,314.336, 253.632,480z"  />
<glyph unicode="&#xe007;" d="M 251.563,452.409L 251.563,452.409C 251.051,452.437, 250.567,452.437, 250.055,452.437C 250.027,452.409, 249.97,452.409, 249.913,452.409
	C 249.458,452.437, 248.946,452.437, 248.491,452.437L 248.491,452.409 c-0.057,0-0.085,0-0.142,0L 248.292,452.409 c-1.081,0-2.19,0.028-3.243,0.028L 245.049,452.409 
	c-1.024,0-2.048,0.028-3.072,0.028L 241.977,452.124 C 211.371,449.963, 184.917,438.073, 184.917,433.522C 175.445,425.529, 165.945,423.424, 161.195,408.263
	c-23.723-10.098-14.222-70.77-14.222-70.77s 4.75-30.35,0-30.35C 142.222,307.143, 140.43,305.436, 138.951,295.054c0-7.68, 4.779-22.955, 4.779-22.955
	s 4.807-17.92, 4.807-22.983c0-7.652, 2.446-10.212, 7.196-10.212c 2.389,0, 9.557,2.588, 10.212,2.532c-3.015-7.652, 21.732-48.469, 16.953-58.539
	c-4.722-10.098-26.34-39.993-45.312-39.993S 49.18,112.924, 39.708,101.689c-9.472-11.15-15.701-104.363-15.701-104.363l 455.111,0 
	c0,0-6.229,93.212-15.701,104.363c-9.5,11.236-78.905,41.188-97.877,41.188c-19.001,0-40.59,29.895-45.34,39.993
	c-4.75,10.069, 20.025,50.916, 16.953,58.539c 0.654,0.057, 7.879-2.532, 10.24-2.532c 4.75,0, 7.196,2.588, 7.196,10.212
	c0,5.035, 4.807,22.983, 4.807,22.983s 4.779,15.275, 4.779,22.926c-1.451,10.411-3.243,12.117-7.993,12.117c-4.779,0,0,30.35,0,30.35
	s 9.472,60.672-14.279,70.77c-4.75,15.161-14.194,17.266-23.694,25.259c0,4.551-26.453,16.441-57.060,18.574L 261.148,452.437 
	c-1.024,0-2.020-0.028-3.044-0.028L 258.105,452.437 c-1.081,0-2.19-0.028-3.243-0.028L 254.805,452.409 c-0.057,0-0.114,0-0.171,0L 254.635,452.437 
	c-0.484,0-0.967,0-1.422,0C 253.156,452.409, 253.099,452.409, 253.042,452.437C 252.558,452.437, 252.046,452.437, 251.563,452.409L 251.563,452.409L 251.563,452.409L 251.563,452.409z
	 M 259.641-2.674L 259.641-2.674L 259.641-2.674z M 259.641-2.674"  />
<glyph unicode="&#xe008;" d="M 512,192l-64,128l-96,0 L 352,384 c0,17.6-14.4,32-32,32L 32,416 C 14.4,416,0,401.6,0,384l0-256 l 32-32l 40.583,0 C 67.134,86.584, 64,75.661, 64,64 c0-35.346, 28.654-64, 64-64s 64,28.654, 64,64c0,11.661-3.134,22.584-8.583,32l 177.167,0 c-5.449-9.416-8.584-20.339-8.584-32 c0-35.346, 28.654-64, 64-64s 64,28.654, 64,64c0,11.661-3.135,22.584-8.584,32L 512,96 L 512,192 z M 352,192l0,80 l 66.334,0 l 40-80L 352,192 z"  />
<glyph unicode="&#xe009;" d="M 217.799,452.437c-23.182,0-38.628-10.724-42.866-32.142L 79.104,420.295 c-15.701,0-28.444-12.743-28.444-28.444l0-93.753 c0-15.701, 12.743-28.444, 28.444-28.444
	L 80.213,269.653 l0-272.299 l 343.040,0 L 423.253,269.625 l 1.138,0 c 15.73,0, 28.444,12.743, 28.444,28.444L 452.836,391.851 c0,15.701-12.715,28.444-28.444,28.444l-95.858,0 c-4.011,21.049-19.399,32.142-42.837,32.142L 217.799,452.437 z
	 M 137.102,54.215L 137.102,269.625 l 26.937,0 l0-215.41 L 137.102,54.215 z M 192.484,54.215L 192.484,269.625 L 237.511,269.625 l0-215.41 L 192.484,54.215 z M 265.956,54.215L 265.956,269.625 l 45.056,0 l0-215.41 L 265.956,54.215 z M 366.364,54.215
	l-26.88,0 L 339.484,269.625 l 26.88,0 L 366.364,54.215 z"  />
<glyph unicode="&#xe00a;" d="M 384.064,110.016c 0.448,100.128, 3.552,245.184, 27.808,324.96c 2.304,7.648-1.632,15.712-8.992,18.656C 379.424,462.848, 326.304,480, 256,480
		S 132.576,462.848, 109.184,453.664C 101.76,450.72, 97.824,442.656, 100.128,435.008c 24.256-79.776, 27.36-224.832, 27.808-324.96C 51.552,124.32,0,138.848,0,96
		c0-23.552, 32-64, 96-96c 36.576-18.272, 96-32, 160-32s 122.624,13.312, 160,32c 64,32, 96,72.768, 96,96C 512,138.848, 460.512,124.32, 384.064,110.016z M 183.008,433.984
		l 4.768-22.048c 15.232-72.256, 26.112-181.696, 27.488-255.488c 0.384-18.368, 0.512-37.248, 0.576-56.992c-11.552,1.152-53.248,2.592-63.008,4.256
		c-0.064,16.672-0.224,32.768-0.448,48.48c-1.376,108.8-10.976,216.672-23.36,260.8L 119.552,440.48C 128.8,438.016, 170.624,435.84, 183.008,433.984z
		 M 484.8,77.76l-1.504-1.408c-17.696-16.704-39.616-31.616-65.184-44.384C 377.44,11.584, 316.864-0.576, 256-0.576
		c-59.968,0-122.048,12.48-162.112,32.544c-25.632,12.768-47.552,27.648-65.184,44.256L 27.2,77.696l0,2.048 c0,7.584, 4.192,14.432, 10.944,17.888
		c 6.56,3.328, 14.88,2.752, 20.864-1.536c 11.744-8.576, 24.928-16.448, 39.136-23.552C 136.992,53.12, 197.504,41.056, 256,41.056
		c 59.424,0, 118.432,11.744, 157.888,31.456c 14.688,7.328, 28.384,15.648, 40.576,24.608c 5.696,4.192, 13.632,4.8, 19.936,1.6
		c 6.432-3.264, 10.432-9.792, 10.432-16.992L 484.832,77.76 z"  />
<glyph unicode="&#xe00b;" d="M 502.368,160c-35.328,0-64,28.64-64,64c0,35.36, 28.672,64, 64,64C 505.696,288, 508.832,287.52, 512,287.040L 512,384 L0,384 l0-96.96 
			C 3.168,287.52, 6.304,288, 9.6,288c 35.36,0, 64-28.64, 64-64c0-35.36-28.64-64-64-64C 6.304,160, 3.168,160.512,0,160.96L0,64 l 512,0 L 512,160.96 
			C 508.832,160.512, 505.696,160, 502.368,160z M 416,128L 96,128 L 96,323.2 l 320,0 L 416,128 z"  />
<glyph unicode="&#xe00c;" d="M 23.979,186.823c0,0, 64.626-6.485, 91.392,10.496c 47.73,30.208, 12.316,62.037, 78.393,112.043
	c 10.325,17.493, 25.799,90.425, 32.967,122.226c 10.325,29.724, 59.25,8.761, 61.611-38.457c 1.621-32.398-7.026-66.731-25.458-100.693
	c0,0-34.219-43.748, 18.261-45.34c 52.508-1.593, 106.041,9.472, 121.941-18.176c 10.98-18.972-12.715-27.62-8.505-44.686
	c 2.816-11.122, 22.329-24.405, 7.452-41.415c-19.797-22.67, 11.349-35.413-9.586-56.292c-21.248-21.276-4.551-14.876-9.529-38.286
	c-5.66-26.681-40.078-25.031-52.793-30.948c-87.182-40.846-159.488-7.936-189.696,1.65c-39.794,12.572-116.423,8.676-116.423,8.676L 24.007,186.823 z"  />
<glyph unicode="&#xe00d;" d="M 406.944,333.568l-40.64,108.256C 358.432,462.784, 337.632,480, 320,480L 310.624,480 C 298.176,480, 280.8,470.4, 272,458.656s-23.2-11.744-32,0 S 213.824,480, 201.344,480L 192,480 C 174.432,480, 153.568,462.784, 145.696,441.824L 105.12,333.568C 41.504,324.224,0,309.28,0,292.256c0-16.16, 37.568-30.56, 96-39.936l0-45.376 l 0.032,0 c0-12.224, 0.064-23.136, 0.064-32C 96.032,174.688, 96.032,174.432, 96,174.144c 0.032,0, 0.032,0.032, 0.128,0.032c0-8.768,0-15.456,0-18.464 c0-86.368, 96-187.712, 160-187.712s 160,101.344, 160,187.712c0,14.496, 0.256,56.064, 0.448,96.672C 474.688,261.792, 512,276.128, 512,292.256 C 512,309.28, 470.496,324.224, 406.944,333.568z M 208,172.8l-32,0 C 167.2,172.8, 160,180.512, 160,189.888c0,9.344, 7.2,17.056, 16,17.056l 32,0 c 8.8,0, 16-7.712, 16-17.056C 224,180.512, 216.8,172.8, 208,172.8z M 336,172.8l-32,0 C 295.2,172.8, 288,180.512, 288,189.888c0,9.344, 7.2,17.056, 16,17.056l 32,0 c 8.8,0, 16-7.712, 16-17.056C 352,180.512, 344.8,172.8, 336,172.8z"  />
<glyph unicode="&#xe00e;" d="M 464.242,307.513l-23.836,0 c-6.343,18.517-16.441,38.372-30.35,59.563c-13.852,21.191-26.738,32.569-38.514,34.19
		c-6.514,0.825-14.507,1.536-24.092,2.133c-9.529,0.626-17.749,0.939-24.633,0.939l-14.336,0 l0-339.911 c0-7.339, 1.365-13.767, 3.982-19.428
		c 2.674-5.604, 7.822-10.012, 15.559-13.284c 4.722-1.792, 11.947-3.726, 21.902-5.689c 9.87-1.877, 18.233-3.271, 25.145-4.068l0-23.865 L 133.461-1.906 l0,23.865 
		c 5.916,0.597, 14.222,1.479, 24.889,2.588s 17.977,2.503, 21.817,4.153c 7.964,3.214, 13.255,7.595, 15.872,13.084
		c 2.674,5.49, 4.011,12.032, 4.011,19.57L 200.050,404.309 L 185.742,404.309 c-6.94,0-15.161-0.313-24.718-0.939C 151.467,402.802, 143.445,402.062, 136.988,401.237
		C 125.184,399.616, 112.356,388.238, 98.418,367.047S 74.411,326.002, 68.124,307.513L 44.288,307.513 L 44.288,431.502 l 419.954,0 L 464.242,307.513 z"  />
<glyph unicode="&#xe00f;" d="M 496,256l-50.768,0 C 431.712,336.32, 368.336,399.6, 288,413.12L 288,464 c0,8.848-7.152,16-16,16l-32,0 c-8.848,0-16-7.152-16-16l0-50.88 C 143.664,399.6, 80.288,336.32, 66.768,256L 16,256 c-8.848,0-16-7.152-16-16l0-32 c0-8.848, 7.152-16, 16-16l 50.768,0 c 13.52-80.32, 76.896-143.616, 157.232-157.12L 224-16 c0-8.848, 7.152-16, 16-16l 32,0 c 8.848,0, 16,7.152, 16,16l0,50.88 c 80.336,13.52, 143.712,76.816, 157.232,157.12L 496,192 c 8.848,0, 16,7.152, 16,16l0,32 C 512,248.848, 504.848,256, 496,256z M 379.936,256L 288,256 L 288,347.808 C 332.944,336.208, 368.336,300.912, 379.936,256z M 224,347.808L 224,256 L 132.048,256 C 143.648,300.912, 179.056,336.208, 224,347.808z M 132.048,192L 224,192 l0-91.792 C 179.056,111.776, 143.648,147.072, 132.048,192z M 288,100.208L 288,192 l 91.936,0 C 368.336,147.072, 332.944,111.776, 288,100.208z"  />
<glyph unicode="&#xe010;" d="M 406.5,452.892L 240.754,442.681L 21.22,223.147l 222.208-222.265l 219.534,219.563l 12.402,163.612L 406.5,452.892z
	 M 408.86,334.194c-15.019-15.019-39.367-15.019-54.386,0.028c-15.019,14.99-15.019,39.367,0,54.386c 15.019,15.019, 39.367,15.019, 54.386,0.028
	C 423.908,373.589, 423.908,349.212, 408.86,334.194z"  />
<glyph unicode="&#xe011;" d="M 475.904,279.552c-3.612,11.093-13.625,18.859-25.23,19.598l-126.748,8.164L 276.992,425.387
	c-4.295,10.809-14.791,17.92-26.425,17.92s-22.101-7.111-26.425-17.92L 177.124,307.314L 50.347,299.15C 38.713,298.411, 28.729,290.645, 25.116,279.552
	C 21.504,268.459, 25.031,256.313, 33.991,248.889l 97.764-81.152L 100.38,44.516c-2.873-11.292, 1.422-23.182, 10.837-30.066
	c 4.978-3.612, 10.837-5.404, 16.725-5.404c 5.262,0, 10.553,1.479, 15.218,4.409l 107.406,67.897l 107.406-67.897c 9.813-6.258, 22.471-5.803, 31.915,1.024
	c 9.415,6.827, 13.71,18.745, 10.837,30.066l-31.46,123.164l 97.792,81.152C 475.989,256.313, 479.488,268.459, 475.904,279.552z"  />
<glyph unicode="&#xe012;" d="M 256,480C 114.615,480,0,365.385,0,224s 114.612-256, 256-256c 141.385,0, 256,114.615, 256,256S 397.385,480, 256,480z M 344,368 c 17.674,0, 32-14.327, 32-32s-14.326-32-32-32c-17.673,0-32,14.327-32,32S 326.327,368, 344,368z M 168,368c 17.673,0, 32-14.327, 32-32 s-14.327-32-32-32s-32,14.327-32,32S 150.327,368, 168,368z M 400.069,137.549c-14.676-24.406-35.46-44.84-60.104-59.089 C 314.551,63.768, 285.517,56, 256,56c-29.518,0-58.551,7.768-83.964,22.46c-24.646,14.249-45.431,34.683-60.105,59.090l-4.126,6.862 l 41.161,24.699l 4.119-6.852C 175.019,125.779, 213.492,104, 256,104c 42.507,0, 80.979,21.779, 102.913,58.261l 4.119,6.851l 41.162-24.698 L 400.069,137.549z"  />
<glyph unicode="&#xe013;" d="M 128,10.667c0-23.573, 19.093-42.667, 42.667-42.667l 160,0 c 23.573,0, 42.667,19.093, 42.667,42.667l0,12.48 c0,10.016, 6.933,18.453, 16.309,20.683C 440.853,51.733, 480,96, 480,149.333c0,24-7.893,46.187-21.333,64l0,72.96 C 458.667,393.28, 365.547,480, 250.667,480S 42.667,393.28, 42.667,286.293L 42.667,213.333 c-13.44-17.813-21.333-40-21.333-64c0-53.333, 39.147-97.6, 90.347-105.504c 9.387-2.229, 16.32-10.667, 16.32-20.683L 128,10.667 z M 106.667,224c0,29.44, 23.893,53.333, 53.333,53.333s 53.333-23.893, 53.333-53.333 s-23.893-53.333-53.333-53.333S 106.667,194.56, 106.667,224z M 288,224c0,29.44, 23.893,53.333, 53.333,53.333s 53.333-23.893, 53.333-53.333s-23.893-53.333-53.333-53.333S 288,194.56, 288,224z M 198.069,110.080l 37.557,37.547 c 8.32,8.32, 21.76,8.32, 30.080,0l 37.547-37.547c 8.107-8.107, 8.107-21.227,0-29.333s-21.227-8.107-29.333,0l-23.253,23.253l-23.264-23.253 c-8.096-8.107-21.216-8.107-29.333,0C 189.984,88.853, 189.984,101.984, 198.069,110.080z"  />
<glyph unicode="&#xe014;" d="M 420.283,296.65l0,0.599 l-0.197,0 l-16.648,50.514L 352.42,347.763 
				c-0.001,0.326-0.002,0.632-0.002,0.904c0,55.924-36.408,97.594-92.346,97.594s-92.335-41.67-92.335-97.594
				c0-0.305-0.008-0.601-0.009-0.904l-50.504,0 L 100.39,297.25l0-286.211 l 319.894,0 L 420.284,296.119 c 0.094,0.030, 0.158,0.052, 0.158,0.052
				L 420.283,296.65z M 258.764,416.689c 38.354,0, 60.492-30.568, 60.492-68.926L 201.934,347.763 C 201.934,386.121, 220.408,416.689, 258.764,416.689z
				 M 136.16,330.92c 5.68,0, 16.694-0.020, 31.131-0.053c-0.156-5.748-0.18-11.405, 0.348-17.175c 1.021-11.431, 0.179-15.165, 0.8-16.443
				l-51.455,0 C 125.091,301.989, 134.895,330.92, 136.16,330.92z M 184.583,246.744c-9.308,0-16.845,7.542-16.845,16.851
				c0,9.287, 7.537,16.834, 16.845,16.834c 9.309,0, 16.823-7.548, 16.823-16.834C 201.406,254.287, 193.891,246.744, 184.583,246.744z
				 M 254.561,296.743c-29.4,0-23.986-0.179-52.043-1.257c-2.061,5.272-1.625,22.854-1.111,36.612l0-1.178 l 118.388,0 
				c 0.442-13.193, 0.754-29.365-0.945-34.081C 288.162,297.439, 284.642,296.743, 254.561,296.743z M 336.102,246.744
				c-9.298,0-16.846,7.542-16.846,16.851c0,9.287, 7.548,16.834, 16.846,16.834c 9.297,0, 16.845-7.548, 16.845-16.834
				C 352.946,254.287, 345.398,246.744, 336.102,246.744z M 351.938,297.25c 0.597,8.797, 0.665,22.082, 0.614,33.188
				c 13.83-0.022, 25.882-0.036, 35.107-0.036c 5.171,0, 9.869-28.464, 16.218-31.732c 1.11-0.569, 2.175-1.029, 3.201-1.419L 351.938,297.251 z"  />
<glyph unicode="&#xe015;" d="M 294.884,150.926c-1.166,1.195-1.963,2.645-3.385,3.641l-56.946,40.903
	C 233.102,196.494, 231.452,196.836, 229.916,197.547c 4.978,16.526, 4.836,34.048-0.37,50.517c 1.508,0.74, 3.1,1.28, 4.523,2.332l 58.795,43.861
	c 1.337,0.996, 2.048,2.361, 3.157,3.527c 14.080-9.7, 30.72-14.99, 48.185-14.99c 22.784,0, 44.231,8.875, 60.359,24.974
	c 33.28,33.28, 33.28,87.41,0,120.69c-32.284,32.256-88.462,32.256-120.69,0C 260.494,405.077, 253.924,371.541, 263.367,342.016
	C 261.86,341.276, 260.21,340.907, 258.816,339.883L 200.021,296.021C 198.656,294.997, 197.888,293.575, 196.75,292.352C 163.897,314.226, 116.764,311.012, 88.292,282.51
	c-33.28-33.28-33.28-87.41,0-120.69c 16.1-16.1, 37.547-25.003, 60.331-25.003c 18.005,0, 35.044,5.717, 49.38,15.986
	c 1.166-1.166, 1.963-2.588, 3.328-3.584l 56.946-40.903c 1.422-1.024, 3.015-1.564, 4.58-2.276c-8.647-29.070-1.906-61.81, 20.992-84.736
	c 16.1-16.1, 37.547-25.003, 60.331-25.003s 44.231,8.875, 60.359,25.003c 33.28,33.28, 33.28,87.381,0,120.661
	C 375.666,170.866, 327.765,173.71, 294.884,150.926z"  />
<glyph unicode="&#xe016;" d="M 192,192c0,17.664, 14.304,32, 32,32l 64,0 c 17.696,0, 32-14.336, 32-32l 96,0 l 95.776,98.144C 510.592,324.352, 482.432,352, 448,352l-63.872,0 
			C 381.824,383.328, 373.184,412.576, 352,429.056L 352,448 L 160,448 l0-18.976 C 138.944,411.072, 131.712,378.944, 129.664,352L 64,352 C 30.272,352, 2.72,325.504, 0.448,292.32L 96,192L 192,192 z
			 M 160.032,387.2L 352,387.2 L 352,388.448 C 356.384,376.48, 358.336,363.008, 359.040,352L 152.16,352 C 153.216,362.624, 155.552,375.552, 160.032,387.2z M 448,160.032l-128,0 L 320,96 
			c0-17.696-14.304-32-32-32L 224,64 c-17.696,0-32,14.304-32,32L 192,160.032 L 64,160.032 L0,224l0-160 c0-35.2, 28.8-64, 64-64l 384,0 c 35.2,0, 64,28.8, 64,64L 512,224 L 448,160.032z M 224,96l 64,0 L 288,192 L 224,192 L 224,96 z"  />
<glyph unicode="&#xe017;" d="M 256,480C 114.615,480,0,365.385,0,224s 114.61-256, 256-256c 141.385,0, 256,114.615, 256,256S 397.385,480, 256,480z M 363.033,54.889 l-4.119,6.852C 336.984,98.221, 298.511,120, 256.001,120c-42.506,0-80.979-21.779-102.916-58.261l-4.119-6.852l-41.161,24.7 l 4.126,6.862c 14.677,24.407, 35.461,44.84, 60.106,59.089c 25.412,14.693, 54.445,22.46, 83.962,22.46 c 29.516,0, 58.551-7.767, 83.964-22.46c 24.646-14.249, 45.429-34.684, 60.104-59.090l 4.125-6.862L 363.033,54.889z M 344,368 c 17.674,0, 32-14.327, 32-32s-14.326-32-32-32c-17.673,0-32,14.327-32,32S 326.327,368, 344,368z M 168,368c 17.673,0, 32-14.327, 32-32 s-14.327-32-32-32s-32,14.327-32,32S 150.327,368, 168,368z"  />
<glyph unicode="&#xe018;" d="M 370.978,303.798l 18.672,31.098l-30.297,19.918l 3.318,36.101l-35.94,4.776L 314.060,429.7
	l-34.436-11.303l-26.175,25.136l-26.132-25.136L 192.835,429.7L 180.18,395.691l-35.957-4.776l 3.353-36.101l-30.331-19.918l 18.69-31.098
	l-18.69-31.068l 30.331-19.898l-3.353-36.132l 35.957-4.76l 12.655-33.979l 34.482,11.268l 26.132-25.135l 26.175,25.135l 34.436-11.268
	l 12.671,33.979l 35.94,4.76l-3.318,36.132l 30.297,19.898L 370.978,303.798z M 286.083,160.891l-15.352-14.779l-17.282-16.613
	l-17.286,16.613l-15.334,14.779l-20.244-6.641l-20.375-6.668l0-133.914 l 71.913,45.195l 74.576-45.195L 326.699,147.549 l-20.39,6.701
	L 286.083,160.891z"  />
<glyph unicode="&#xe019;" d="M 250.624,455.225c 125.668,0, 227.556-101.888, 227.556-227.556c0-125.668-101.86-227.556-227.556-227.556s-227.556,101.888-227.556,227.556C 23.068,353.337, 124.956,455.225, 250.624,455.225z
	 M 215.893,83.769l 63.147,0 l0,62.009 L 215.893,145.778 L 215.893,83.769 z M 344.178,325.547c-3.385,8.818-9.074,17.351-16.782,25.031c-7.68,7.964-17.92,14.222-30.72,19.627
	C 283.876,375.324, 267.947,377.884, 248.889,377.884c-14.791,0-28.16-2.276-40.107-7.396C 196.836,365.653, 186.596,358.542, 178.347,349.724c-8.533-8.818-15.076-19.342-19.911-31.289
	C 153.884,306.489, 151.324,293.12, 151.040,278.613l 59.164,0 c0,7.111, 0.853,13.938, 2.56,20.196c 1.422,6.258, 3.982,11.947, 7.396,16.498c 3.413,4.836, 7.68,8.533, 12.8,11.378
	s 11.378,4.267, 18.773,4.267c 10.809,0, 19.029-3.129, 25.031-9.102c 6.258-5.689, 9.074-14.791, 9.074-27.307c 0.284-7.111-0.853-13.084-3.698-17.92
	S 275.627,267.236, 271.076,263.253C 266.524,259.271, 261.404,255.289, 256,251.307C 250.596,247.040, 245.76,242.489, 240.924,236.8C 236.089,231.396, 231.822,224.853, 228.124,216.889
	c-3.698-7.68-5.973-17.351-6.542-28.729L 221.582,169.956 L 275.911,169.956 l0,15.36 c 1.138,7.964, 3.698,14.82, 7.68,19.911c 4.267,5.404, 9.102,10.24, 14.535,14.222
	c 5.376,4.267, 11.093,8.533, 17.067,12.516c 5.973,4.267, 11.378,9.387, 16.498,15.076c 4.836,5.973, 9.102,13.084, 12.487,21.333c 3.129,8.533, 5.148,19.058, 5.148,31.858
	C 349.298,308.196, 347.307,316.444, 344.178,325.547z"  />
<glyph unicode="&#xe01a;" d="M 412.416,385.764c 88.832-88.86, 88.832-232.903,0-321.792c-88.889-88.832-232.932-88.832-321.792,0
	c-88.86,88.889-88.86,232.932,0,321.792C 179.484,474.596, 323.527,474.596, 412.416,385.764 M 393.956,253.326L 279.95,253.326 L 279.95,367.303 l-56.889,0 l0-113.977 L 109.084,253.326 l0-56.889 l 113.977,0 l0-114.005 l 56.889,0 
	L 279.95,196.437 l 113.977,0 L 393.927,253.326 z"  />
<glyph unicode="&#xe01b;" d="M 131.3,441.458c 30.606-35.726, 43.207-67.584, 51.854-111.417c0,0-27.42-36.38-38.884-49.237
	c-6.684-25.145, 115.712-155.932, 163.499-158.436c0,0, 28.53,39.367, 54.528,58.681c 36.039-4.238, 116.252-50.546, 116.252-50.546s-1.991-26.852-9.785-47.559
	c-7.737-20.764-17.607-37.717-45.284-51.172c-39.31-17.721-69.888-14.364-69.888-14.364c-30.663,0.967-231.936,40.363-325.945,273.749
	c0,0-12.971,46.279, 3.413,91.079c 12.572,34.389, 33.536,54.5, 51.001,59.221C 108.174,448.54, 131.3,441.458, 131.3,441.458z"  />
<glyph unicode="&#xe01c;" d="M 412.355,78.977c-7.020,16.572-93.386,41.963-100.527,42.391l-5.798-0.428c-11.78-2.441-24.735-13.611-52.018-37.721
		c-30.701,14.16-72.725,52.064-92.562,74.403c-21.424,24.14-48.188,64.821-57.802,95.202c 31.068,27.542, 44.007,39.506, 44.832,52.796
		c 0.458,7.156-14.374,95.934-30,104.952l-4.669,2.945c-9.949,6.409-24.964,16.098-41.626,12.68
		c-4.089-0.839-7.996-2.426-11.688-4.715c-11.2-7.049-38.636-26.093-51.118-50.965c-7.721-15.503-11.23-156.878, 94.729-276.341
		C 208.784-23.99, 337.891-29.119, 357.301-25.15l 0.549,0.092l 1.709,0.488c 26.186,9.398, 48.342,34.363, 56.703,44.678
		c 15.381,19.014, 4.395,41.657-1.525,53.804L 412.355,78.977zM 439.699,363.528L 505.924,429.783L 461.733,474.004L 395.448,407.718L 329.163,474.004L 284.988,429.813L 351.258,363.528L 284.988,297.243L 329.163,253.053L 395.51,319.338L 461.795,253.053L 505.985,297.243 	z"  />
<glyph unicode="&#xe01d;" d="M 283.591,222.208C 274.631,213.276, 258.958,214.357, 248.69,224.626l0,0C 238.364,234.951, 237.255,250.624, 246.215,259.612
	l 26.34,26.311c 8.932,8.988, 24.661,7.851, 34.958-2.446l0,0c 10.297-10.268, 11.435-25.941, 2.446-34.901L 283.591,222.208z M 476.53,346.34
	c0-3.783-1.508-7.396-4.153-10.069L 182.386,46.308c-1.991-1.963-4.551-3.044-7.253-3.612c-1.849-2.901-4.324-5.319-7.708-6.286
	l-124.672-35.641c-1.28-0.398-2.588-0.569-3.897-0.569c-3.698,0-7.339,1.451-10.041,4.153c-3.641,3.641-5.035,8.96-3.641,13.938
	l 35.186,124.814c 0.996,3.47, 3.47,5.973, 6.457,7.822c 0.512,2.674, 1.564,5.291, 3.641,7.367L 360.363,448.228
	c 5.547,5.547, 14.564,5.547, 20.11,0l 91.876-91.847C 475.022,353.735, 476.53,350.123, 476.53,346.34z M 136.306,57.116l-55.154,54.983l-10.24-36.352
	l 29.070-29.013L 136.306,57.116z M 379.932,284.103l-71.737,71.765l-207.588-207.616l 71.737-71.765L 379.932,284.103z M 442.197,346.34l-71.765,71.737
	l-42.098-42.098l 71.737-71.765L 442.197,346.34z"  />
<glyph unicode="&#xe01e;" d="M 425.024,323.488c-9.024,0-16.288-2.688-22.24-7.328c 4.096,13.44, 6.496,28.352, 6.496,44.288
			c0,56.448-42.176,102.208-82.176,102.208c-40.096,0-53.44-45.76-53.44-102.208c0-56.448, 27.776-102.208, 67.904-102.208
			c 16.48,0, 30.656,8.032, 41.888,21.088c-3.488-16.192-4.672-35.776-4.672-56.864c0-55.872, 26.432-101.056, 64.8-101.056
			c 38.176,0, 69.248,45.184, 69.248,101.056C 512.768,278.304, 463.328,323.488, 425.024,323.488z M 116,301.216c 12.704-25.28, 33.056-41.888, 56.128-41.888
			c 38.56,0, 65.184,45.536, 65.184,101.696c0,56.128-8.128,101.664-46.528,101.664c-38.624,0-88.384-45.536-88.384-101.664
			c0-20.864, 4.352-40.224, 11.744-56.352C 106.464,316.608, 95.84,323.84, 81.248,323.84c-37.088,0-80.48-45.248-80.48-101.088
			c0-55.872, 30.048-101.088, 67.040-101.088c 37.088,0, 62.656,45.216, 62.656,101.088C 130.464,254.624, 126.272,282.656, 116,301.216z M 352.832,133.824
			c-33.888,26.944-34.688,78.432-99.2,78.432c-69.44,0-60.672-54.080-88.256-71.936c-48.384-31.424-61.184-56.256-61.184-92.096
			c0-49.376, 38.912-62.912, 160.704-62.912c 121.76,0, 145.888,19.936, 145.888,62.912C 410.848,94.304, 380.16,112.224, 352.832,133.824z"  />
<glyph unicode="&#xe01f;" d="M 63.488,288.796l 125.013,0l0-69.746 l 127.972,111.36L 188.501,441.742l0-67.612 l-125.013,0c-23.58,0-42.667-19.086-42.667-42.667
		C 20.821,307.911, 39.936,288.796, 63.488,288.796zM 477.099,119.154L 349.042,230.542l0-67.612 L 63.488,162.93 c-23.58,0-42.667-19.115-42.667-42.667s 19.086-42.667, 42.667-42.667l 285.525,0 l0-69.717 
		L 477.099,119.154z"  />
<glyph unicode="&#xe020;" d="M 367.872,105.216c0-23.723-19.228-43.008-42.809-43.008L 131.157,62.208 c-23.666,0-42.866,19.285-42.866,43.008L 88.292,299.463 
		c0,23.694, 19.228,43.008, 42.866,43.008l 170.866,0 L 302.023,406.357 L 131.157,406.357 c-58.795,0-106.638-47.957-106.638-106.894l0-194.247 c0-58.937, 47.844-106.894, 106.638-106.894
		l 193.906,0 c 58.738,0, 106.553,47.957, 106.553,106.894L 431.616,277.39 l-63.744,0 L 367.872,105.216 zM 192.284,196.494L 223.289,165.49L 414.436,356.636L 479.118,291.982L 479.061,452.437L 318.635,452.437L 383.403,387.669 	
		z"  />
<glyph unicode="&#xe021;" d="M 255.169,442.284c 120.399,0, 217.999-97.602, 217.999-217.999
				c0-120.394-97.6-217.996-217.999-217.996c-120.397,0-217.998,97.603-217.998,217.996
				C 37.171,344.683, 134.772,442.284, 255.169,442.284 M 255.169,376.111c-83.716,0-151.826-68.108-151.826-151.826
				c0-83.715, 68.11-151.826, 151.826-151.826s 151.826,68.111, 151.826,151.826C 406.995,308.003, 338.885,376.111, 255.169,376.111
				L 255.169,376.111zM 294.625,156.57l-58.234,60.113L 236.391,337.687 c0,10.371, 8.405,18.775, 18.779,18.775l0,0
		c 10.371,0, 18.78-8.405, 18.78-18.775l0,0l-0.005-105.793l 47.654-49.194c 7.217-7.447, 7.030-19.334-0.424-26.553l0,0
		c-3.646-3.531-8.355-5.289-13.064-5.289l0,0C 303.208,150.857, 298.307,152.766, 294.625,156.57L 294.625,156.57z"  />
<glyph unicode="&#xe022;" d="M 256,480C 114.615,480,0,365.385,0,224s 114.613-256, 256-256c 141.385,0, 256,114.615, 256,256S 397.385,480, 256,480z M 369.5,93.5l-225,0 
	l0,45 l 225,0 L 369.5,93.5 z M 344,368c 17.674,0, 32-14.327, 32-32s-14.326-32-32-32c-17.673,0-32,14.327-32,32S 326.327,368, 344,368z M 168,368
	c 17.673,0, 32-14.327, 32-32s-14.327-32-32-32s-32,14.327-32,32S 150.327,368, 168,368z"  />
<glyph unicode="&#xe023;" d="M 394.667,91.52c 9.92-3.947, 20.683-6.187, 32-6.187c 47.147,0, 85.333,38.187, 85.333,85.333L 512,330.667 c0,47.147-38.187,85.333-85.333,85.333c-11.317,0-22.080-2.24-32-6.187L 394.667,437.333 c0,23.573-19.093,42.667-42.667,42.667L 42.667,480 C 19.093,480,0,460.907,0,437.333l0-361.067 C0,16.427, 48.427-32, 108.267-32L 286.4-32 C 346.24-32, 394.667,16.427, 394.667,76.267L 394.667,91.52 z M 96,405.333l0-309.333 c0-11.733-9.6-21.333-21.333-21.333s-21.333,9.6-21.333,21.333L 53.333,405.333 c0,11.733, 9.6,21.333, 21.333,21.333S 96,417.067, 96,405.333z M 458.667,170.667c0-17.707-14.293-32-32-32 s-32,14.293-32,32L 394.667,330.667 c0,17.707, 14.293,32, 32,32s 32-14.293, 32-32L 458.667,170.667 z"  />
<glyph unicode="&#xe024;" d="M 259.752,75.357l 11.844,0 c 10.609,0.277, 11.844,6.908, 11.844,11.844l0,31.582 c0,4.934-1.234,11.565-11.967,11.843l-11.721,0 
		L 259.752,75.357 zM 196.588,213.529l0-31.582 c0-4.935, 1.233-11.566, 11.905-11.844l 11.782,0 l0,55.27 l-11.782,0 
		C 197.821,225.080, 196.588,218.48, 196.588,213.529zM 318.969,355.65c-31.582,31.582, 63.166,63.165, 63.166,94.747c0,31.582-63.166,31.582-126.33,0
		c-63.165,31.582-126.329,31.582-126.329,0c0-31.583, 94.747-63.165, 63.165-94.747c-31.583-31.583-157.912-94.747-157.912-252.658
		c0-157.912, 27.326-126.33, 221.076-126.33c 185.238,0, 221.076-27.326, 221.076,126.33C 476.881,260.903, 350.552,324.068, 318.969,355.65
		z M 271.596,170.104c 20.603,0, 51.321-13.662, 51.321-51.32l0-31.582 c0-37.658-30.719-51.322-51.321-51.322l-11.844,0 l0-11.844 
		c0-10.887-8.882-19.738-19.738-19.738c-10.918,0-19.739,8.852-19.739,19.738l0,11.844 l-43.426,0 c-10.918,0-19.739,8.852-19.739,19.738
		c0,10.889, 8.821,19.74, 19.739,19.74l 43.426,0 l0,55.269 l-11.843,0 c-20.664,0-51.321,13.663-51.321,51.321l0,31.582 
		c0,37.659, 30.657,51.322, 51.321,51.322l 11.843,0 l0,11.843 c0,10.887, 8.821,19.739, 19.739,19.739c 10.856,0, 19.738-8.852, 19.738-19.739
		l0-11.843 l 43.426,0 c 10.857,0, 19.739-8.852, 19.739-19.739c0-10.887-8.882-19.739-19.739-19.739l-43.426,0 l0-55.27 L 271.596,170.104 z"  />
<glyph unicode="&#xe025;" d="M 413.497,385.65c 89.116-89.116, 89.116-233.586,0-322.702c-89.116-89.088-233.557-89.088-322.702,0
	c-89.088,89.116-89.088,233.586,0,322.702C 179.94,474.709, 324.38,474.709, 413.497,385.65 M 395.008,195.897l0,56.889 L 109.34,252.786 l0-56.889 L 395.008,195.897 L 395.008,195.897z"  />
<glyph unicode="&#xe026;" d="M 384,256L 256,384L 128,256 zM 128,160L 256,32L 384,160 z"  />
<glyph unicode="&#xe027;" d="M 255.56,475.578C 154.682,475.578, 72.909,393.803, 72.909,292.92c0-100.87, 182.652-320.988, 182.652-320.988
	s 182.655,220.117, 182.655,320.988C 438.215,393.803, 356.431,475.578, 255.56,475.578z M 256.788,223.756c-45.392,0-82.191,36.798-82.191,82.191
	S 211.396,388.138, 256.788,388.138c 45.393,0, 82.193-36.798, 82.193-82.191S 302.181,223.756, 256.788,223.756z"  />
<glyph unicode="&#xe028;" d="M 460.686,72.306l-119.808,119.609c-0.256,0.256-0.597,0.313-0.825,0.569
		c 16.441,26.652, 25.401,57.287, 25.401,89.372c0,45.682-17.806,88.633-50.119,120.917C 283.051,435.058, 240.128,452.836, 194.446,452.836S 105.842,435.058, 73.557,402.773
		C 41.244,370.46, 23.467,327.509, 23.467,281.828c0-45.653, 17.778-88.604, 50.091-120.889c 32.284-32.341, 75.236-50.148, 120.917-50.148
		c 30.265,0, 59.278,7.993, 84.85,22.699c 0.54-0.597, 0.711-1.394, 1.308-1.963l 119.808-119.609c 8.334-8.306, 19.228-12.459, 30.151-12.459
		s 21.874,4.153, 30.208,12.516C 477.383,28.644, 477.383,55.666, 460.686,72.306z M 113.778,201.188C 92.217,222.72, 80.356,251.364, 80.356,281.828
		c0,30.492, 11.861,59.136, 33.422,80.697c 21.561,21.532, 50.204,33.422, 80.668,33.422s 59.108-11.861, 80.64-33.422
		c 21.561-21.561, 33.451-50.233, 33.451-80.697c0-30.464-11.89-59.108-33.451-80.668C 232.021,157.98, 156.9,157.98, 113.778,201.188z"  />
<glyph unicode="&#xe029;" d="M 508.544,222.272c0-55.424-13.856-102.528-42.24-144.096C 419.168,9.568, 340.16-32, 256.352-32c-72.736,0-134.4,27.008-182.912,78.272
	c-46.432,49.184-69.984,110.144-69.984,182.912c0,67.904, 26.336,130.272, 74.816,178.048C 126.784,455.072, 187.776,480, 257.728,480
	c 105.312,0, 197.472-64.448, 236.96-169.728l-137.216,0 c-30.464,31.872-62.304,47.776-101.12,47.776c-72.032,0-128.864-58.88-128.864-129.536
	c0-78.304, 60.96-138.592, 128.864-138.592c 45.728,0, 86.592,23.552, 110.88,66.496L 226.56,156.416 L 226.56,254.848 l 280.576,0 C 507.84,243.744, 508.544,232.672, 508.544,222.272z"  />
<glyph unicode="&#xe02a;" d="M 393.728,269.17l-28.843,0 L 364.885,335.787 c0,64.228-51.257,116.48-114.261,116.48c-62.976,0-114.233-52.252-114.233-116.48l0-66.617 
	L 107.548,269.17 c-7.851,0-14.222-6.372-14.222-14.222l0-239.872 c0-7.851, 6.372-14.222, 14.222-14.222l 286.18,0 c 7.851,0, 14.222,6.372, 14.222,14.222L 407.95,254.948 
	C 407.95,262.798, 401.579,269.17, 393.728,269.17z M 193.308,335.787c0,32.853, 25.714,59.591, 57.344,59.591c 31.63,0, 57.372-26.738, 57.372-59.591l0-66.617 L 193.308,269.17 
	L 193.308,335.787 z"  />
<glyph unicode="&#xe02b;" d="M 465.749,268.231L 257.024,268.231 L 257.024,335.417 c0,64.597-52.565,117.134-117.163,117.134c-64.597,0-117.134-52.537-117.134-117.134l0-76.658 
	c0-15.701, 12.743-28.444, 28.444-28.444s 28.444,12.743, 28.444,28.444L 79.616,335.417 c0,33.223, 27.022,60.245, 60.245,60.245c 33.223,0, 60.274-27.022, 60.274-60.245l0-67.214 L 169.842,268.203 
	c-7.851,0-14.222-6.372-14.222-14.222l0-241.664 c0-7.851, 6.372-14.222, 14.222-14.222l 295.908,0 c 7.851,0, 14.222,6.372, 14.222,14.222L 479.972,254.009 
	C 479.972,261.86, 473.6,268.231, 465.749,268.231z"  />
<glyph unicode="&#xe02c;" d="M 512,224c-0.639,33.431-7.892,66.758-21.288,97.231c-13.352,30.5-32.731,58.129-56.521,80.96 c-23.776,22.848-51.972,40.91-82.492,52.826C 321.197,466.979, 288.401,472.693, 256,472c-32.405-0.641-64.666-7.687-94.167-20.678 c-29.524-12.948-56.271-31.735-78.367-54.788c-22.112-23.041-39.58-50.354-51.093-79.899C 20.816,287.104, 15.309,255.375, 16,224 c 0.643-31.38, 7.482-62.574, 20.067-91.103c 12.544-28.55, 30.738-54.414, 53.055-75.774c 22.305-21.377, 48.736-38.252, 77.307-49.36 C 194.988-3.389, 225.652-8.688, 256-8c 30.354,0.645, 60.481,7.277, 88.038,19.457c 27.575,12.141, 52.558,29.74, 73.183,51.322 c 20.641,21.57, 36.922,47.118, 47.627,74.715c 6.517,16.729, 10.94,34.2, 13.271,51.899c 0.623-0.036, 1.249-0.060, 1.881-0.060 c 17.673,0, 32,14.326, 32,32c0,0.898-0.047,1.786-0.119,2.666L 512,223.999 z M 461.153,139.026c-11.736-26.601-28.742-50.7-49.589-70.59 c-20.835-19.905-45.5-35.593-72.122-45.895C 312.828,12.202, 284.297,7.315, 256,8c-28.302,0.649-56.298,6.868-81.91,18.237 c-25.625,11.333-48.842,27.745-67.997,47.856c-19.169,20.099-34.264,43.882-44.161,69.529C 51.997,169.264, 47.318,196.729, 48,224 c 0.651,27.276, 6.664,54.206, 17.627,78.845c 10.929,24.65, 26.749,46.985, 46.123,65.405c 19.365,18.434, 42.265,32.935, 66.937,42.428 C 203.356,420.208, 229.755,424.681, 256,424c 26.25-0.653, 52.114-6.459, 75.781-17.017c 23.676-10.525, 45.128-25.751, 62.812-44.391 c 17.698-18.629, 31.605-40.647, 40.695-64.344C 444.412,274.552, 448.679,249.219, 448,224l 0.119,0 c-0.072-0.88-0.119-1.768-0.119-2.666 c0-16.506, 12.496-30.087, 28.543-31.812C 473.431,172.111, 468.278,155.113, 461.153,139.026z"  />
<glyph unicode="&#xe02e;" d="M 288.597,175.559c 6.77-34.788-3.243-72.22-30.094-99.186l-44.8-44.999
	c-10.837-10.894-23.609-19.115-37.461-24.604c-12.828-5.12-26.567-7.908-40.789-7.908c-29.383,0-57.031,11.406-77.852,32.142
	c-20.907,20.821-32.455,48.555-32.512,78.052c-0.028,14.108, 2.731,27.79, 7.737,40.533c 5.461,13.909, 13.625,26.766, 24.519,37.66l 44.715,44.885
	c 25.771,25.913, 63.46,35.726, 98.361,29.639L 153.344,214.471c-11.719-11.804-17.607-27.25-17.778-42.752L 104.334,140.373
	c-8.334-8.363-12.914-19.428-12.885-31.204c0-11.236, 4.295-21.703, 11.918-29.867c 0.37-0.427, 0.654-0.882, 1.052-1.28
	s 0.882-0.654, 1.28-1.052c 8.135-7.538, 18.603-11.748, 29.724-11.748c 11.804,0, 22.898,4.58, 31.232,12.971l 31.004,31.175
	c 16.242,0.228, 31.488,6.571, 42.98,18.119L 288.597,175.559z M 444.217,419.186c-41.728,41.7-114.432,41.586-156.274-0.313L 231.424,362.041
	C 204.572,335.047, 194.617,297.557, 201.444,262.741l 42.382,42.524c 11.236,11.321, 26.596,17.038, 42.069,17.408l 49.095,49.323
	c 8.363,8.391, 19.513,13.028, 31.346,13.028c 11.691,0, 22.727-4.551, 31.033-12.857c 17.18-17.152, 17.294-45.084, 0.256-62.236l-48.555-48.668
	c-0.114-15.559-6.030-31.090-17.835-42.98l-42.382-42.553c 6.827-1.308, 13.796-2.020, 20.878-2.020c 29.611,0, 57.401,11.548, 78.165,32.512l 56.747,56.889
	C 487.481,306.261, 487.282,376.263, 444.217,419.186z M 307.541,281.97c-5.348,5.348-12.487,8.277-20.082,8.277c-7.623,0-14.791-2.958-20.139-8.363
	L 266.297,280.86L 234.866,249.316L 214.585,228.949L 183.666,197.916l-6.827-6.855c-11.207-11.264-11.179-29.042, 0.114-40.42
	c 5.291-5.262, 12.402-8.164, 19.94-8.164c 7.68,0, 14.848,2.987, 20.281,8.42l 6.514,6.542l 31.204,31.346l 20.537,20.622L 306.972,241.067l 0.683,0.683
	C 318.72,252.843, 318.663,270.905, 307.541,281.97z"  />
<glyph unicode="&#xe02f;" d="M 135.42,373.376C 37.577,316.599, 43.191,224.12, 46.56,189.912C 172.94,339.616, 361.984,332.356, 361.984,332.356 S 94.008,240.436, 15.304,56.112c-6.217-14.556, 29.169-33.476, 37.24-16.276c 24.1,51.265, 57.68,89.704, 57.68,89.704 c 49.544-18.436, 135.256-40.044, 196.008,2.703c 80.688,56.788, 72.444,182.668, 187.632,243.96 C 520.769,390.517, 268.076,450.356, 135.42,373.376z"  />
<glyph unicode="&#xe030;" d="M 478.862-2.446L 23.239-2.446 L 23.239,453.205 l 455.623,0 L 478.862-2.446 L 478.862-2.446z M 80.128,54.443l 341.845,0 L 421.973,396.316 L 80.128,396.316 L 80.128,54.443 
	L 80.128,54.443z M 384.54,359.538L 121.316,359.538 l0-67.1 l 263.225,0 L 384.54,359.538 z M 384.54,255.744L 231.396,255.744 l0-172.146 l 153.145,0 L 384.54,255.744 z M 189.724,255.772L 121.316,255.772 l0-172.743 L 189.724,83.029 L 189.724,255.772 
	z"  />
<glyph unicode="&#xe031;" d="M 249.685,452.466c 125.668,0, 227.556-101.888, 227.556-227.556c0-125.696-101.86-227.556-227.556-227.556c-125.668,0-227.556,101.86-227.556,227.556
	C 22.13,350.578, 124.018,452.466, 249.685,452.466z M 281.316,111.076c-1.707,0.569-2.56,2.276-3.1,4.551C 277.049,119.609, 276.48,132.978, 276.48,155.449L 276.48,221.724 
	c0,17.636, 0.853,36.693, 2.276,56.889L 274.204,281.173C 262.542,276.338, 251.449,272.924, 241.493,270.649C 231.538,268.373, 216.747,266.098, 197.12,264.107l0-14.791 c 15.076,0, 23.893-1.138, 26.453-2.844
	C 224.711,245.902, 225.564,244.196, 226.133,241.636c 1.138-5.689, 1.707-28.729, 1.707-69.404c0-29.582-0.569-48.043-1.707-55.154c-0.569-3.413-1.991-5.689-3.982-6.827
	c-1.991-1.422-10.524-2.276-25.031-3.413l0-14.507 c 14.507,0.569, 30.72,0.853, 49.493,0.853c 21.618,0, 41.813-0.313, 60.018-0.853l0,15.36 
	C 293.262,107.947, 284.729,109.084, 281.316,111.076z M 250.596,314.169c 8.249,0, 15.36,3.129, 21.049,8.818c 5.689,5.973, 8.533,13.084, 8.533,21.333c0,7.964-2.844,15.076-8.533,20.764
	C 265.956,371.058, 258.844,373.902, 250.596,373.902s-15.36-2.844-21.049-8.818c-5.689-5.689-8.533-12.8-8.533-20.764c0-8.249, 2.844-15.36, 8.818-21.333
	C 235.52,317.298, 242.347,314.169, 250.596,314.169z"  />
<glyph unicode="&#xe032;" d="M 363.321,453.262L 139.321,453.262 c-63.289,0-114.802-51.627-114.802-115.115l0-224.711 c0-63.431, 51.513-115.086, 114.802-115.086l 224,0 
	c 63.289,0, 114.745,51.627, 114.745,115.086l0,224.711 C 478.094,401.607, 426.61,453.262, 363.321,453.262z M 421.205,121.316l-62.436,108.487
	c-5.063,8.818-14.478,14.251-24.633,14.251s-19.57-5.433-24.661-14.251l-33.479-58.169L 209.522,287.061C 204.459,295.879, 195.044,301.312, 184.889,301.312
	S 165.291,295.879, 160.228,287.061l-78.82-136.932l0,188.018 c0,32.085, 25.97,58.226, 57.913,58.226l 224,0 c 31.915,0, 57.856-26.112, 57.856-58.226L 421.177,121.316 z
	 M 331.52,323.698c0-22.585-18.347-40.96-40.875-40.96c-22.556,0-40.903,18.375-40.903,40.96s 18.347,40.988, 40.903,40.988
	C 313.202,364.686, 331.52,346.283, 331.52,323.698z"  />
<glyph unicode="&#xe034;" d="M 120.8,417.696L 61.472,417.696 l0-95.232 l 59.328,62.432L 120.8,417.696 z M 252.832,457.312L0,208.608l 12.192-15.328l 52.544,0l0-158.016 L 250.88,35.264 
			L 250.88,194.624 l 104.608,0 l0-159.328 l 86.624,0 L 442.112,193.408 l 59.936,0L 512,212.256L 252.832,457.312z"  />
<glyph unicode="&#xe036;" d="M 509.152,432.224c-10.656,6.656-87.2-15.2-127.2-27.328C 280.032,439.104, 234.56,440.192, 131.2,404.576C 91.488,416.608, 13.632,438.976, 2.848,432.224
	C-7.424,425.792, 12.576,352.704, 24.96,311.072c-21.28-51.52-19.936-111.328-19.936-151.328c0-69.28, 56.192-127.040, 125.504-127.040l 69.696,0 
	c 14.016-11.328, 32.416-18.208, 52.64-18.208s 38.624,6.912, 52.672,18.208l 76,0 c 69.312,0, 125.472,57.28, 125.472,126.624
	c0,39.488, 0.672,99.552-20.096,151.232C 499.328,352.128, 519.488,425.76, 509.152,432.224z M 258.464,196.128c 14.208,0, 25.792-0.832, 25.792-8.608
	c0-7.776-11.552-19.456-25.792-19.456c-14.24,0-25.824,11.68-25.824,19.456C 232.672,195.296, 244.224,196.128, 258.464,196.128z M 42.464,340.224
	c0,0-18.24,56.48-12.416,60.096c 5.856,3.648, 60.768-14.016, 60.768-14.016L 42.464,340.224z M 137.248,224.256C 121.824,226.048, 97.344,248.832, 98.56,259.136
	c 1.216,10.272, 27.648,17.152, 43.072,15.328C 157.056,272.64, 181.536,249.888, 180.32,239.584C 179.104,229.312, 152.672,222.432, 137.248,224.256z M 252.864,35.52
	c-30.496,0-64.736,20.96-64.736,62.624L 208.32,98.144 l 9.728-34.272l 6.816,34.272l 56,0 l 6.784-34.272l 8.896,34.272l 20.48,0 
	C 316.992,56.512, 283.36,35.52, 252.864,35.52z M 381.28,224.256c-15.424-1.824-41.888,5.056-43.104,15.328s 23.296,33.024, 38.688,34.848
	c 15.424,1.824, 41.888-5.056, 43.104-15.328C 421.152,248.832, 396.672,226.048, 381.28,224.256z M 467.52,340.224l-48.384,46.112
	c0,0, 54.944,17.632, 60.768,14.016C 485.76,396.704, 467.52,340.224, 467.52,340.224z"  />
<glyph unicode="&#xe037;" d="M 464.839,146.944c 3.157,0, 8.334-1.223, 14.279-2.987l0-146.546 l-106.695,0 l-0.256,0 c0,0-5.689,120.974-14.507,131.3
	c-4.921,5.831-27.392,17.038-49.209,25.799c 8.619,7.31, 15.844,17.948, 18.091,22.727c 3.612,7.68-15.161,38.599-12.857,44.402
	c-0.512,0.057-5.916-1.934-7.737-1.934c-3.584,0-5.404,1.991-5.404,7.765c0,3.783-3.641,17.38-3.641,17.38S 293.262,256.37, 293.262,262.201
	c 1.052,7.851, 2.475,9.188, 6.059,9.188s0,22.983,0,22.983s-7.196,45.966, 10.809,53.618c 3.556,11.463, 10.78,13.084, 17.977,19.115
	c0,3.442, 19.996,12.459, 43.207,14.080L 371.314,381.412 c 0.768,0, 1.536,0, 2.304,0l0,0 c 0.825,0, 1.65,0, 2.475,0l 0.028,0 c 0.057,0, 0.085,0, 0.114,0l0,0 
	c 0.37,0, 0.711,0, 1.109,0c 0.028,0, 0.057,0, 0.085,0c 0.37,0, 0.74,0, 1.109,0l0,0 l0,0 c 0.398,0, 0.796,0, 1.166,0c 0.028,0, 0.057,0, 0.085,0
	c 0.37,0, 0.711,0, 1.109,0l0,0 c 0.028,0, 0.057,0, 0.085,0l 0.057,0 c 0.825,0, 1.65,0, 2.475,0l0,0 c 0.74,0, 1.536,0, 2.304,0l0-0.256 
	c 23.182-1.621, 43.207-10.638, 43.207-14.080c 7.225-6.030, 14.364-7.652, 17.977-19.115c 18.005-7.652, 10.837-53.618, 10.837-53.618
	s-3.641-22.983,0-22.983c 3.556,0, 4.921-1.308, 6.030-9.188c0-5.831-3.584-17.38-3.584-17.38s-3.669-13.625-3.669-17.38
	c0-5.774-1.849-7.765-5.433-7.765c-1.792,0-7.253,1.991-7.765,1.934c 2.332-5.774-16.412-36.722-12.8-44.402S 450.446,146.944, 464.839,146.944
	z M 357.66,128.683c-4.921,5.831-27.392,17.038-49.209,25.799c-16.924,6.77-33.479,12.146-41.131,12.146c-17.522,0-37.433,27.676-41.842,36.978
	c-4.352,9.301, 18.489,47.019, 15.644,54.073C 241.749,257.735, 248.377,255.289, 250.596,255.289c 4.409,0, 6.628,2.446, 6.628,9.472
	c0,4.636, 4.466,21.191, 4.466,21.191s 4.352,14.108, 4.352,21.191C 264.676,316.729, 263.026,318.322, 258.645,318.322c-4.352,0,0,28.018,0,28.018
	S 267.349,402.347, 245.504,411.676C 241.124,425.671, 232.391,427.634, 223.63,434.972c0,4.21-24.434,15.189-52.708,17.18L 170.923,452.466 c-0.939,0-1.849,0-2.844,0l0,0 
	c-0.967,0-1.991,0-2.987,0l0,0 c-0.057,0-0.114,0-0.142,0l0,0 c-0.455,0-0.91,0-1.308,0c-0.057,0-0.057,0-0.114,0
	c-0.512,0-0.939,0-1.394,0c-0.484,0-0.91,0-1.394,0c0,0-0.057,0-0.114,0c-0.455,0-0.882,0-1.308,0l0,0 c-0.028,0-0.057,0-0.114,0
	L 159.090,452.466 c-0.996,0-1.991,0-2.987,0l0,0 c-0.967,0-1.877,0-2.844,0l0-0.313 c-28.245-1.991-52.651-12.971-52.651-17.18
	C 91.847,427.634, 83.058,425.671, 78.706,411.676C 56.775,402.347, 65.564,346.34, 65.564,346.34s 4.324-28.018,0-28.018c-4.409,0-6.059-1.593-7.424-11.179
	c0-7.111, 4.409-21.22, 4.409-21.22s 4.409-16.583, 4.409-21.191c0-7.054, 2.247-9.472, 6.628-9.472c 2.247,0, 8.846,2.446, 9.444,2.418
	C 80.27,250.624, 103.111,212.907, 98.759,203.605s-24.292-36.978-41.842-36.978c-6.4,0-19.029-3.726-32.882-8.875l0-160.37 l 348.16,0 
	C 372.167-2.617, 366.478,118.357, 357.66,128.683z"  />
<glyph unicode="&#xe038;" d="M 240,182.368c-5.344,0-10.688,1.376-15.488,4L 96,248.032L 96,76.8 c0,0, 58.016-44.8, 160.96-44.8
			c 103.168,0, 159.040,44.8, 159.040,44.8L 416,254.208 L 251.328,184.48C 247.648,183.072, 243.808,182.368, 240,182.368z M 32,324.256L 240,227.2L 512,336L 275.2,416L0,339.2L0,96 l 64,32
			L 32,192L 32,324.256 z"  />
<glyph unicode="&#xe039;" d="M 320-32l 64,0 l0,64 l-64,0 L 320-32 z M 64-32l 64,0 l0,64 L 64,32 L 64-32 z M 169.696,195.2L 448,195.2 L 512,416L 128,416 L 128,480 L0,480 l0-64 l 64,33.632L 64,416 c0,0,0-179.2,0-243.2
	S 93.344,67.2, 175.936,67.2c 64,0, 240.064,0, 240.064,0L 416,128 L 172.736,128 C 137.568,128, 124.8,144.064, 124.8,163.2C 124.8,175.744, 134.496,195.2, 169.696,195.2z"  />
<glyph unicode="&#xe03a;" d="M 167.745-27l 223.437,0 c0,0, 83.953,221.529, 109.771,289.507c 25.879,68.375-37.934,84-61.859,19.532
		c-17.242-46.448-29.907-52.75-29.907-52.75s-26.337,0.061-21.973,27.344c 6.012,37.125, 13.946,82.001, 25.94,150.376
		c 7.416,42.343-61.859,48.813-67.811,13.687s-19.99-128.907-23.957-150.376c-4.028-21.469-29.389-39.032-31.952,13.657
		c-1.679,35.37-3.968,87.128-3.968,156.251c0,46.875-75.821,41.001-75.821-1.938c0-30.045, 2.441-152.345, 1.999-175.783
		c-0.427-23.438-11.032-30.854-25.925,1.938c-15.976,35.157-32.914,76.783-47.882,111.344
		C 115.896,426.57, 56.432,391.75, 70.027,356.258c 11.902-31.037, 40.619-99.625, 63.843-152.36c 11.871-26.978, 26.901-80.567-9.995-52.765
		c-25.94,19.562-35.919,39.093-65.857,58.624c-29.938,19.532-60.089-22.522-48.493-36.469c 25.94-31.25, 71.564-80.414, 101.060-127.595
		C 132.528,10.537, 167.745-27, 167.745-27z"  />
<glyph unicode="&#xe03b;" d="M 181.333,448.171c-41.707,41.707-108.48,42.453-150.080,0.736 c-41.707-41.589-41.707-109.216,0-150.827c 20.8-20.789, 47.787-31.253, 74.987-31.253L 23.467,266.827 c-13.013,0-23.467-10.453-23.467-23.467l0-49.056 c0-13.024, 10.453-23.477, 23.467-23.477 L 42.667,170.827 l0-160 c0-23.563, 19.093-42.667, 42.667-42.667l 341.333,0 c 23.573,0, 42.667,19.104, 42.667,42.667l0,160 l 19.2,0 c 13.013,0, 23.467,10.453, 23.467,23.477l0,49.056 c0,13.013-10.453,23.467-23.467,23.467l-82.891,0 c 27.317,0, 54.304,10.453, 75.093,31.253c 41.717,41.6, 41.717,109.227,0,150.827C 439.147,490.635, 372.373,489.877, 330.667,448.171l-74.667-74.667L 181.333,448.171z M 311.253,354.944 l 56.32,56.32c 20.907,20.8, 54.613,20.8, 75.52,0c 20.8-20.907, 20.8-54.613,0-75.52c-10.443-10.347-24.117-15.573-37.76-15.573l-77.547,0 c-11.744,0-21.333,9.6-21.333,21.333 C 306.453,346.635, 308.267,351.211, 311.253,354.944z M 144.427,411.264l 54.613-54.613l 0.107-0.107c 3.829-3.947, 6.187-9.173, 6.187-15.040c0-11.733-9.6-21.333-21.333-21.333L 106.667,320.171 c-13.653,0-27.317,5.227-37.76,15.573c-20.8,20.907-20.8,54.613,0,75.52C 89.813,432.064, 123.52,432.064, 144.427,411.264z M 202.667,266.837l 106.667,0 l0-221.856 c0-13.024-10.453-23.477-23.467-23.477l-59.733,0 c-13.013,0-23.467,10.453-23.467,23.477L 202.667,266.837 z"  />
<glyph unicode="&#xe03c;" d="M 437.545,419.838c-12.654-4.859-26.52-10.547-37.246-19.087l-74.985-63.44L 95.29,385.938
	l-28.026-27.646l 177.113-100.969L 155.56,149.9l-70.245,21.483l-29.921-27.927l 66.778-33.946l-5.952-7.177
	c-3.208-3.221-3.010-13.392, 0.032-17.053c 3.629-3.072, 13.866-3.289, 17.102-0.036l 7.358,5.937l 34.14-67.148l 27.928,29.884
	l-21.485,70.080l 107.685,86.99l 98.664-173.076l 27.63,28.058l-47.581,225.2l 64.686,77.31c 8.436,10.773, 14.159,24.643, 19.13,37.265
	C 456.479,418.348, 450.204,424.707, 437.545,419.838z M 116.546,84.938c-0.1,0.112-0.195,0.228-0.293,0.343
	c-0.1,0.080-0.195,0.18-0.327,0.26L 116.546,84.938z"  />
<glyph unicode="&#xe03d;" d="M 477.98,190.692L 477.98,254.805 l-55.524,25.344c-2.446,7.367-5.575,14.364-8.875,21.276l 24.32,64.996L 393.387,411.676
	l-65.65-25.486c-4.437,2.048-9.045,3.812-13.682,5.518l-27.136,61.924L 223.915,453.632 l-26.994-61.44c-4.864-1.735-9.387-4.153-14.052-6.315L 116.338,411.733
	L 71.851,366.45l 24.718-66.020c-2.304-4.864-4.267-9.927-6.172-15.019L 23.296,254.805l0-64.142 l 66.816-30.436c 1.707-4.665, 4.039-8.988, 6.087-13.483
	l-22.926-61.241l 44.43-45.198l 57.6,22.329c 8.021-4.181, 16.526-7.538, 25.202-10.439l 23.353-53.22l 62.948,0 l 23.381,53.276
	c 8.932,3.015, 17.664,6.485, 25.913,10.809l 58.624-22.756l 44.487,45.255l-23.438,62.72c 2.475,5.547, 4.693,11.264, 6.628,17.095L 477.98,190.692z
	 M 250.652,154.652c-39.566,0-71.68,32.057-71.68,71.652c0,39.623, 32.085,71.708, 71.68,71.708c 39.623,0, 71.68-32.085, 71.68-71.708
	C 322.304,186.681, 290.247,154.652, 250.652,154.652z"  />
<glyph unicode="&#xe03e;" d="M 337.088,191.488L 318.816,173.216l 20-20.032l 120.192,120.128l-20.032,20.032l-11.84-11.84L 263.68,444.928l 15.040,15.040
			L 258.688,480L 138.56,359.84l 20-20.032L 173.632,354.88l 61.664-61.632l-216.928-216.864l 42.72-42.72l 216.96,216.864L 337.088,191.488z M 493.664,31.872
			l0,31.904 L 270.144,63.776 l0-31.904 L 302.080,31.872 l0-31.936 L 270.144-0.064 L 270.144-32 l 223.488,0 l0,31.936 l-31.936,0 l0,31.936 L 493.664,31.872 z"  />
<glyph unicode="&#xe03f;" d="M 227.637,183.272L 140.712,253.309l-86.992-70.040l 33.237,113.333L0,366.565l 107.501,0 L 140.712,480l 33.213-113.435l 107.509,0 
	L 194.461,296.603L 227.637,183.272zM 459.635-32l-86.928,70.043L 285.72-32l 33.24,113.333L 232,151.291l 107.499,0 l 33.208,113.437l 33.213-113.437l 107.507,0 
	L 426.461,81.333L 459.635-32z"  />
<glyph unicode="&#xe040;" d="M 224,448l 32,0 l0-144 L 198.368,224L 196.352,191.072L 224,8.832L 192-32L 160-32 l-32,41.76l 26.976,180.384L 153.632,224L 96,304L 96,448 l 32,0 l0-128 l 32,0 L 160,448 l 32,0 l0-128 l 32,0 
	L 224,448 z M 385.632,474.176c0,0-65.632-29.248-65.632-102.944c0-130.976, 64-252.832, 64-252.832l-32-147.2l 64,0 L 416,473.6 L 385.632,474.176z"  />
<glyph unicode="&#xe041;" d="M 327.794,288.711c-26.965,59.676-77.881,88.064-77.881,88.064L 141.938,425.899c-1.166,12.658-10.212,23.524-23.324,25.6
	C 103.083,454.116, 88.491,443.42, 86.044,427.918L 22.727,30.919c-2.475-15.502, 8.107-30.094, 23.609-32.569c 1.536-0.256, 3.015-0.37, 4.523-0.37
	c 13.71,0, 25.828,9.984, 28.046,23.979l 31.972,200.476c 42.752-2.93, 112.441-13.17, 174.962-47.36c 98.873-53.931, 191.744,53.988, 191.744,53.988
	S 354.759,229.092, 327.794,288.711z"  />
<glyph unicode="&#xe042;" d="M 478.692,453.319L 22.187,453.319L 201.159,210.66L 201.159-1.252L 299.548-1.252L 299.548,210.404 z"  />
<glyph unicode="&#xe045;" d="M 233.074,42.809c-108.544,2.020-185.97,25.145-192,115.598l 135.708,0 c 2.503-23.097, 14.080-36.693, 56.292-41.216l0,71.396 
		l-60.302,8.533C 77.284,210.688, 47.132,240.839, 47.132,296.647c0,94.976, 115.086,110.080, 179.94,110.080L 227.072,451.442 l 28.132,0 l0-44.715 
		c 114.091-6.030, 174.905-37.205, 181.931-111.076l-132.693,0 c-1.991,20.622-14.564,35.186-49.237,40.704L 255.204,271.502 L 344.178,257.934
		c 69.86-10.553, 109.056-36.693, 109.056-98.020c0-110.052-136.704-117.106-192-117.106l0-44.715 L 233.074-1.906 L 233.074,42.809 z M 227.044,336.327
		c-15.588,0-56.292-3.015-56.292-31.659c0-12.572, 8.533-20.622, 22.613-23.125l 33.678-6.030L 227.044,336.327 z M 261.234,117.191
		c 28.16,0.512, 56.292,7.566, 56.292,33.195c0,22.101-14.592,28.132-55.296,33.166L 261.234,183.552 L 261.234,117.191 z"  />
<glyph unicode="&#xe046;" d="M 193.5,192.751l0,93.75 L 37.25,286.501 c-17.151,0-31.25-14.099-31.25-31.25l0-218.75 c0-17.212, 14.099-31.25, 31.25-31.25L 256,5.251 
		c 17.212,0, 31.25,14.038, 31.25,31.25l0,93.75 L 256,130.251 C 221.515,130.251, 193.5,158.267, 193.5,192.751z M 99.75,67.751L 68.5,67.751 l0,31.25 l 31.25,0 
		L 99.75,67.751 z M 99.75,130.251L 68.5,130.251 l0,31.25 l 31.25,0 L 99.75,130.251 z M 99.75,192.751L 68.5,192.751 l0,31.25 l 31.25,0 L 99.75,192.751 z M 224.75,67.751L 193.5,67.751 l0,31.25 
		l 31.25,0 L 224.75,67.751 zM 474.75,442.751L 256,442.751 c-17.151,0-31.25-14.099-31.25-31.25l0-218.75 c0-17.212, 14.099-31.25, 31.25-31.25l 218.75,0 
		c 17.212,0, 31.25,14.038, 31.25,31.25L 506,411.501 C 506,428.652, 491.962,442.751, 474.75,442.751z M 318.5,349.001l-31.25,0 l0,31.25 l 31.25,0 L 318.5,349.001 z
		 M 381,286.501l-31.25,0 l0,31.25 L 381,317.751 L 381,286.501 z M 443.5,224.001l-31.25,0 l0,31.25 l 31.25,0 L 443.5,224.001 z"  />
<glyph unicode="&#xe047;" d="M 411.412,353.621L 303.020,353.621 L 99.692,151.353l 140.645-140.649l 199.869,199.87L 440.206,324.829 L 411.412,353.621z
			 M 403.511,275.896c-11.336-11.338-29.72-11.338-41.058,0c-11.34,11.337-11.34,29.72,0,41.054
			c 11.338,11.344, 29.722,11.344, 41.058,0.004C 414.848,305.615, 414.849,287.232, 403.511,275.896zM 287.236,369.485L 293.785,376.003L 411.414,376.003L 411.414,407.924L 382.621,436.72L 274.229,436.714L 70.903,234.446L 111.090,194.257 z"  />
<glyph unicode="&#xe048;" d="M 431.246,108.060c-22.386,30.407-61.212,47.616-93.696,44.174l-34.788,39.851
	c 46.564,54.528, 102.002,136.505, 139.833,248.178C 443.733,443.477, 442.396,447.004, 439.438,448.711c-2.958,1.678-6.656,1.052-8.903-1.479L 255.374,246.443
	L 80.213,447.232C 78.023,449.764, 74.268,450.389, 71.31,448.711c-2.958-1.707-4.267-5.234-3.186-8.448c 37.831-111.644, 93.269-193.65, 139.833-248.178
	l-34.788-39.851c-32.427,3.47-71.225-13.71-93.668-44.174c-16.156-21.845-22.329-46.905-16.924-68.75c 4.21-17.095, 15.218-30.692, 31.004-38.343
	c 9.216-4.437, 19.541-6.713, 30.692-6.713c 30.948,0, 64.114,17.835, 84.452,45.426c 16.128,21.874, 22.3,46.905, 16.896,68.75
	c-0.512,2.048-1.422,3.897-2.133,5.831c 6.713,5.291, 17.892,14.564, 31.915,27.79c 13.995-13.227, 25.145-22.5, 31.915-27.762
	c-0.711-1.934-1.65-3.783-2.133-5.831c-5.404-21.817, 0.711-46.876, 16.868-68.779c 20.423-27.591, 53.561-45.426, 84.48-45.426
	c 11.179,0, 21.476,2.276, 30.663,6.713c 15.844,7.68, 26.852,21.305, 31.061,38.4C 453.575,61.212, 447.403,86.244, 431.246,108.060z M 185.828,56.548
	c-19.598-26.567-57.486-40.846-79.872-29.98c-8.164,3.954-13.625,10.695-15.815,19.541c-3.3,13.426, 1.252,30.236, 12.203,45.056
	c 14.905,20.196, 39.623,33.792, 61.497,33.792c 6.827,0, 12.999-1.308, 18.347-3.897c 8.164-3.954, 13.625-10.667, 15.815-19.484
	C 201.301,88.206, 196.75,71.367, 185.828,56.548z M 255.403,168.875c-11.406,0-20.708,7.737-20.708,17.237c0,9.529, 9.273,17.266, 20.708,17.266
	c 11.378,0, 20.679-7.737, 20.679-17.266C 276.053,176.612, 266.78,168.875, 255.403,168.875z M 420.58,46.165c-2.19-8.875-7.68-15.644-15.872-19.57
	c-5.291-2.588-11.406-3.897-18.261-3.897c-21.874,0-46.62,13.625-61.582,33.849c-10.923,14.82-15.445,31.659-12.146,45.056
	c 2.19,8.789, 7.652,15.502, 15.815,19.456c 5.348,2.588, 11.492,3.897, 18.347,3.897c 21.902,0, 46.592-13.568, 61.497-33.792
	C 419.3,76.402, 423.879,59.563, 420.58,46.165z"  />
<glyph unicode="&#xe049;" d="M 443.712,427.744L 68.256,427.744 C 30.72,427.744,0,397.024,0,359.456l0-238.944 c0-37.536, 30.72-68.256, 68.256-68.256l 375.456,0 
			c 37.568,0, 68.288,30.72, 68.288,68.256L 512,359.456 C 512,397.024, 481.28,427.744, 443.712,427.744z M 488.128,257.056L 17.088,257.056 L 17.088,362.88 l 471.040,0 L 488.128,257.056 z"  />
<glyph unicode="&#xe04a;" d="M 443.616,241.056L 375.36,241.056 l0-204.736 l-34.112,0 L 341.248,241.056 L 272.992,241.056 l0-204.736 L 238.88,36.32 L 238.88,241.056 L 170.624,241.056 l0-204.736 L 136.512,36.32 L 136.512,241.056 L 68.256,241.056 
			l0-204.736 L0,36.32 l0-68.256 l 511.872,0 l0,68.256 l-68.256,0 L 443.616,241.056 z M 18.432,275.2l 475.264,0 c 8.192,0, 15.328,5.024, 17.6,12.32s-0.896,15.104-7.808,19.168
			L 265.728,477.312c-5.952,3.488-13.568,3.488-19.488,0L 8.672,306.688C 1.76,302.656-1.376,294.816, 0.832,287.52C 3.104,280.224, 10.272,275.2, 18.432,275.2
			z M 255.936,420.416c 33.088,0, 59.904-26.848, 59.904-59.904c0-33.088-26.816-59.936-59.904-59.936S 196,327.424, 196,360.512
			C 196,393.568, 222.848,420.416, 255.936,420.416z"  />
<glyph unicode="&#xe04b;" d="M 257,480L 512,224L 512,480 z"  />
<glyph unicode="&#xe04c;" d="M 289.568,265.088l 201.632,201.536L 20.8,466.624 l 207.968-210.912l0-205.088 l-3.2,0 l-128-64l 320,0 l-128,64L 289.568,265.088 z M 219.168,354.656
			c0,30.016, 24.352,54.4, 54.432,54.4c 30.048,0, 54.432-24.384, 54.432-54.4s-24.384-54.4-54.432-54.4C 243.52,300.224, 219.168,324.608, 219.168,354.656z"  />
<glyph unicode="&#xe04d;" d="M 152.889,107.321c 2.731-0.228, 5.518-0.37, 8.306-0.37l 186.965,0 c 2.162,0, 4.324,0.085, 6.514,0.199
	c 32.398-1.764, 65.508,7.68, 90.254,28.217c 45.596,37.888, 45.596,99.356,0,137.216c-11.122,9.301-23.979,16.27-37.689,21.020
	c 1.337,16.555-4.238,33.564-16.697,46.222c-22.073,22.443-57.628,22.869-80.242,1.308c-5.376,12.26-13.084,23.723-23.040,33.792
	c-43.292,43.691-113.522,43.691-156.814,0C 108.231,352.512, 97.394,322.958, 97.991,293.575c-13.625-4.722-26.453-11.719-37.547-20.964
	c-45.568-37.888-45.568-99.328,0-137.216C 85.788,114.375, 119.836,104.988, 152.889,107.321L 152.889,107.321z M 152.889,107.321"  />
<glyph unicode="&#xe04e;" d="M 479.061,224.853c0-125.639-101.888-227.527-227.556-227.556c-125.668,0.028-227.527,101.888-227.556,227.527c0,125.696, 101.888,227.556, 227.556,227.556
		C 377.173,452.38, 479.033,350.521, 479.061,224.853M 372.452,305.323L 332.288,345.6L 251.563,265.074L 170.951,345.685L 130.731,305.465L 211.285,224.882L 130.617,144.412L 170.809,104.135L 251.534,184.661L 332.146,104.050L 372.366,144.27L 291.783,224.853 	z"  />
<glyph unicode="&#xe04f;" d="M 23.979,224.91A227.556,227.556 180 1 1 479.090,224.91A227.556,227.556 180 1 1 23.979,224.91z"  />
<glyph unicode="&#xe050;" d="M 185.998,16.299c0,0-0.028,0-0.057,0c-15.104,0-29.611,6.030-40.277,16.754l-104.22,104.676
	C 19.285,160, 19.371,196.011, 41.643,218.169c 22.272,22.13, 58.254,22.073, 80.469-0.171l 63.972-64.256l 196.437,196.608
	c 22.215,22.244, 58.254,22.244, 80.469,0.028c 22.215-22.215, 22.215-58.226, 0.028-80.441l-236.772-236.971C 215.552,22.3, 201.074,16.299, 185.998,16.299
	L 185.998,16.299z"  />
<glyph unicode="&#xe051;" d="M 249.173,452.409c-125.724,0-227.556-101.831-227.556-227.556c0-125.696, 101.831-227.556, 227.556-227.556s 227.556,101.831, 227.556,227.556C 476.729,350.578, 374.898,452.409, 249.173,452.409z M 389.404,260.978
	L 242.631,114.204C 234.667,106.24, 223.573,101.689, 212.48,101.689L 212.196,101.689 c-11.093,0-22.187,4.551-30.151,12.487l-64.569,64.853C 100.978,195.84, 100.978,222.862, 117.76,239.36
	c 16.498,16.782, 43.52,16.498, 60.302,0l 34.418-34.702l 116.309,116.622c 16.811,16.782, 43.804,16.782, 60.615,0C 405.902,304.782, 405.902,277.76, 389.404,260.978z"  />
<glyph unicode="&#xe052;" d="M 511.008,232.576c0,39.456-25.76,93.056-54.016,124.768C 442.592,373.504, 420.128,384, 395.776,384L 275.072,384 
			c-29.728,0-61.76-17.504-76.608-29.696S 156.032,319.68, 130.88,308.352S 78.176,293.472, 41.6,284.8C 17.792,279.136, 3.84,255.648, 1.6,235.2
			C 0.128,221.952,0,192,0,192l 29.216,0 C 36.704,230.88, 70.944,260.416, 112,260.416S 187.296,230.88, 194.784,192l 121.856,0 c 7.488,39.232, 41.984,69.024, 83.36,69.024
			S 475.872,231.232, 483.36,192L 512,192 C 512,192, 511.008,207.232, 511.008,232.576z M 112,224C 85.472,224, 64,202.528, 64,176C 64,149.504, 85.472,128, 112,128
			S 160,149.504, 160,176C 160,202.528, 138.528,224, 112,224z M 400,224C 373.504,224, 352,202.528, 352,176c0-26.496, 21.504-48, 48-48S 448,149.504, 448,176
			C 448,202.528, 426.496,224, 400,224z"  />
<glyph unicode="&#xe053;" d="M 512,448L0,448 l0-384 l 512,0 L 512,448 z M 128,224L 64,224 L 64,288 l 64,0 L 128,224 z M 256,160c-52.96,0-96,42.944-96,96c0,53.024, 43.040,96, 96,96c 53.056,0, 96-42.976, 96-96 C 352,202.944, 309.056,160, 256,160z M 448,224l-64,0 L 384,288 l 64,0 L 448,224 z M 480,0L 32,0 l0,32 l 448,0 L 480,0 z"  />
<glyph unicode="&#xe054;" d="M 294.4-0.882c-4.949,0-9.899,1.28-14.336,3.868l-150.13,87.524c-59.164,0.683-107.065,51.029-107.065,112.782
		L 22.869,341.305 c0,62.208, 48.583,112.811, 108.288,112.811l 237.995,0 c 59.705,0, 108.288-50.603, 108.288-112.811l0-138.012 c0-62.18-48.583-112.782-108.288-112.782L 322.844,90.51 l0-62.948 
		c0-10.183-5.433-19.57-14.279-24.661C 304.156,0.37, 299.264-0.882, 294.4-0.882L 294.4-0.882z M 131.129,397.227
		c-28.331,0-51.399-25.088-51.399-55.922l0-138.012 c0-30.805, 23.068-55.893, 51.399-55.893l 6.485,0 c 5.035,0, 9.984-1.337, 14.308-3.868l 114.005-66.475
		l0,41.899 c0,15.73, 12.743,28.444, 28.444,28.444l 74.752,0 c 28.331,0, 51.399,25.088, 51.399,55.893L 420.523,341.305 c0,30.834-23.068,55.922-51.399,55.922L 131.129,397.227 L 131.129,397.227z"  />
<glyph unicode="&#xe055;" d="M 294.4-2.645c-4.949,0-9.899,1.28-14.336,3.868l-150.13,87.524c-59.164,0.683-107.065,51.029-107.065,112.782
		L 22.869,339.541 c0,62.208, 48.583,112.811, 108.288,112.811l 237.995,0 c 59.705,0, 108.288-50.603, 108.288-112.811L 477.44,201.529 c0-62.18-48.583-112.782-108.288-112.782L 322.844,88.747 l0-62.948 
		c0-10.183-5.433-19.57-14.279-24.661C 304.156-1.394, 299.264-2.645, 294.4-2.645L 294.4-2.645z"  />
<glyph unicode="&#xe056;" d="M 439.979,319.403L 251.676,452.437L 63.147,319.63L 63.147,132.437L 251.335-2.503L 439.979,132.665L 439.979,132.665L 439.979,132.722 	zM 251.307,201.102L 87.296,318.748L 251.705,435.257L 415.801,319.317 	z"  />
<glyph unicode="&#xe057;" d="M 102.229,112.242l0-57.173 l-49.778,0 c-15.644,0-28.444,12.8-28.444,28.729c0,15.644, 12.8,28.444, 28.444,28.444L 102.229,112.242 z M 52.452,251.904
	c-15.644,0-28.444-12.8-28.444-28.729c0-15.644, 12.8-28.444, 28.444-28.444l 49.778,0 l0,57.173 L 52.452,251.904 z M 102.229,452.437l0-61.156 l 23.609,0 c 15.644,0, 28.444-12.8, 28.444-28.444c0-15.929-12.8-28.729-28.444-28.729
	l-23.609,0 l0-82.204 l 23.609,0 c 15.644,0, 28.444-12.8, 28.444-28.729c0-15.644-12.8-28.444-28.444-28.444l-23.609,0 l0-82.489 l 23.609,0 c 15.644,0, 28.444-12.8, 28.444-28.444c0-15.929-12.8-28.729-28.444-28.729l-23.609,0 l0-57.742 
	l 376.889,0 l0,455.111 L 102.229,452.437 z M 52.452,391.282c-15.644,0-28.444-12.8-28.444-28.444c0-15.929, 12.8-28.729, 28.444-28.729l 49.778,0 l0,57.173 L 52.452,391.282 z M 125.838,391.282l-23.609,0 l0-57.173 l 23.609,0 
	c 15.644,0, 28.444,12.8, 28.444,28.729C 154.283,378.482, 141.483,391.282, 125.838,391.282z M 125.838,251.904l-23.609,0 l0-57.173 l 23.609,0 c 15.644,0, 28.444,12.8, 28.444,28.444
	C 154.283,239.104, 141.483,251.904, 125.838,251.904z M 125.838,112.242l-23.609,0 l0-57.173 l 23.609,0 c 15.644,0, 28.444,12.8, 28.444,28.729C 154.283,99.442, 141.483,112.242, 125.838,112.242
	z"  />
<glyph unicode="&#xe058;" d="M 494.944,318.112c0,0-104.384-17.088-117.184-93.888c-8.192-49.152-3.328-84.96, 1.312-104.608
			c-32.256,56.864-65.696,92.864-91.104,114.56c 11.68,18.432, 17.184,41.088, 17.472,65.376c 0.8,58.176-43.328,141.536-80.64,178.88
			c-15.68,15.68-26.112-91.328-26.112-91.328S 92.832,432.8, 77.792,417.728C 62.688,402.656, 112.576,305.888, 112.576,305.888s-114.976-17.12-96.192-35.872
			c 36.992-36.992, 119.424-80.928, 177.216-80.672c 30.144,0.128, 57.728,8.256, 78.048,26.144c 24-20.416, 56.544-54.848, 87.808-110.976
			c 32.64-58.496, 48.736-135.744, 48.928-136.512l 24.064,4.928c-0.672,3.136-15.328,72.256-45.632,131.936C 404.8,120.192, 516.512,219.936, 494.944,318.112z"  />
<glyph unicode="&#xe059;" d="M 21.788,143.104L 136.761,143.104L 136.761-1.024L 21.788-1.024zM 193.109,285.070L 308.053,285.070L 308.053-1.024L 193.109-1.024zM 362.155,454.002L 477.099,454.002L 477.099-1.052L 362.155-1.052z"  />
<glyph unicode="&#xe05a;" d="M0,480l 64,0 l0-512 L0-32 L0,480 z M 96-32l 32,0 L 128,480 L 96,480 L 96-32 z M 160-32l 96,0 L 256,480 L 160,480 L 160-32 z M 288-32l 32,0 L 320,480 L 288,480 L 288-32 z M 352.992-32L 416-32 L 416,480 l-64,0 L 352.992-32z M 448-32l 64,0 L 512,480 
		l-63.488,0 L 448-32z"  />
<glyph unicode="&#xe05b;" d="M 443.847,260.836l-105.33,0 l 74.496,74.496c 13.881,13.881, 13.881,36.409,0,50.29c-13.881,13.881-36.38,13.881-50.29,0
	l-74.524-74.553L 288.199,416.427 c0,19.627-15.929,35.556-35.556,35.556s-35.556-15.929-35.556-35.556l0-105.159 L 142.763,385.621c-13.881,13.881-36.38,13.881-50.29,0
	c-13.881-13.881-13.881-36.38,0-50.29L 166.969,260.836L 61.525,260.836 c-19.627,0-35.556-15.929-35.556-35.556s 15.929-35.556, 35.556-35.556l 105.358,0 l-74.411-74.411
	c-13.881-13.881-13.881-36.38,0-50.29c 6.94-6.94, 16.043-10.411, 25.145-10.411s 18.204,3.47, 25.145,10.411l 74.325,74.325l0-105.273 
	c0-19.627, 15.929-35.556, 35.556-35.556s 35.556,15.929, 35.556,35.556l0,105.472 l 74.524-74.524c 6.94-6.94, 16.014-10.411, 25.145-10.411s 18.204,3.47, 25.145,10.411
	c 13.881,13.881, 13.881,36.38,0,50.29l-74.411,74.411l 105.244,0 c 19.627,0, 35.556,15.929, 35.556,35.556S 463.502,260.836, 443.847,260.836z"  />
<glyph unicode="&#xe05c;" d="M 384,128L 256,320L 128,128 z"  />
<glyph unicode="&#xe05d;" d="M 160,96L 352,224L 160,352 z"  />
<glyph unicode="&#xe05e;" d="M 472.292,194.133L 273.038,442.311c-10.809,13.454-33.593,13.454-44.373,0L 29.525,194.133
	c-6.855-8.533-8.192-20.252-3.47-30.123c 4.75-9.87, 14.706-16.128, 25.657-16.128l 97.252,0 l0-119.979 c0-15.73, 12.743-28.444, 28.444-28.444l 146.972,0 
	c 15.73,0, 28.444,12.715, 28.444,28.444l0,119.979 l 97.28,0 c 10.951,0, 20.907,6.286, 25.628,16.128C 480.512,173.881, 479.147,185.6, 472.292,194.133z"  />
<glyph unicode="&#xe05f;" d="M 254.208,445.070c-0.028,0-0.028,0-0.057,0c-61.98,0-120.348-25.941-162.304-70.286L 24.178,413.924l-0.171-247.552
	L 238.535,289.991L 169.074,330.155C 193.138,348.956, 222.862,359.737, 254.151,359.737c0,0,0,0, 0.028,0c 76.288,0, 138.382-62.094, 138.382-138.411
	c0-76.288-62.094-138.382-138.382-138.382c-43.264,0-83.285,19.684-109.767,54.044c-14.364,18.603-41.159,22.13-59.847,7.708
	c-18.66-14.393-22.13-41.159-7.737-59.847c 42.752-55.467, 107.406-87.268, 177.351-87.268c 123.335,0, 223.716,100.352, 223.716,223.716
	C 477.895,344.718, 377.515,445.070, 254.208,445.070z"  />
<glyph unicode="&#xe060;" d="M 412.444,64.256c 88.889,88.889, 88.889,233.017, 0.028,321.963c-88.946,88.86-233.102,88.86-321.991-0.028
		c-88.946-88.946-88.946-233.074,0-321.934C 179.371-24.718, 323.527-24.718, 412.444,64.256M 350.663,206.706L 348.444,204.459l-19.228-19.2l-90.539-90.596c-11.122-11.093-29.099-11.122-40.277,0
		c-11.122,11.15-11.065,29.127,0,40.249l 90.596,90.539L 198.4,315.989c-11.065,11.15-11.122,29.099,0,40.277C 209.579,367.388, 227.556,367.36, 238.677,356.267
		l 90.567-90.596l 19.257-19.228l 2.105-2.105c 4.494-5.035, 7.509-11.548, 7.509-18.887C 358.116,218.197, 355.157,211.712, 350.663,206.706z"  />
<glyph unicode="&#xe061;" d="M 90.425,64.256C 1.536,153.145, 1.536,297.273, 90.396,386.219c 88.946,88.86, 233.102,88.86, 321.991-0.028
		c 88.946-88.946, 88.946-233.074,0-321.934C 323.499-24.718, 179.342-24.718, 90.425,64.256M 152.206,206.706l 2.219-2.219l 19.228-19.2l 90.539-90.596c 11.122-11.093, 29.099-11.122, 40.277,0
		c 11.122,11.15, 11.065,29.127,0,40.249L 213.874,225.479l 90.596,90.539c 11.065,11.15, 11.122,29.099, 0.028,40.277c-11.207,11.122-29.156,11.093-40.306,0
		L 173.625,265.7L 154.368,246.471L 152.263,244.338C 147.74,239.303, 144.754,232.818, 144.754,225.479C 144.754,218.197, 147.684,211.712, 152.206,206.706z"  />
<glyph unicode="&#xe062;" d="M 352,352L 160,224L 352,96 z"  />
<glyph unicode="&#xe063;" d="M 128,320L 256,128L 384,320 z"  />
<glyph unicode="&#xe064;" d="M 459.008,246.585c-32.882,63.972-105.557,104.164-215.125,120.292l 0.142,85.561L 23.979,310.699l 219.563-140.658L 243.684,246.471
	c 4.011,0.142, 8.391,0.256, 13.198,0.256c 42.354,0, 118.699-7.566, 153.856-58.226c 26.738-38.514, 25.97-96.427-2.276-172.146
	c-2.588-6.969, 0.597-14.763, 7.367-17.892c 1.906-0.882, 3.982-1.308, 5.973-1.308c 5.006,0, 9.813,2.645, 12.43,7.282
	C 452.466,37.063, 508.217,150.898, 459.008,246.585z"  />
<glyph unicode="&#xe065;" d="M 478.805,17.721L 261.348,444.814C 258.901,449.593, 254.009,452.58, 248.661,452.58C 243.172,452.636, 238.308,449.508, 235.89,444.672
	L 24.889,17.579c-2.19-4.409-1.934-9.643, 0.654-13.796c 2.588-4.153, 7.168-6.713, 12.089-6.713l 428.459,0 c 4.949,0, 9.557,2.617, 12.174,6.77
	C 480.825,8.050, 481.052,13.34, 478.805,17.721z M 223.431,292.267c0,15.701, 12.743,28.444, 28.444,28.444c 15.701,0, 28.444-12.743, 28.444-28.444l0-122.681 c0-15.73-12.743-28.444-28.444-28.444
	c-15.701,0-28.444,12.715-28.444,28.444L 223.431,292.267 z M 277.191,58.88c-6.741-6.969-15.701-10.837-25.316-10.837s-18.603,3.868-25.316,10.837
	c-13.483,14.108-13.483,37.035,0,51.115c 13.426,14.052, 37.177,14.052, 50.631,0C 290.731,95.915, 290.731,72.988, 277.191,58.88z"  />
<glyph unicode="&#xe066;" d="M 504.062,253.785c-0.335,2.899-0.885,5.737-1.312,8.606c-1.1,7.080-2.441,14.069-4.15,20.935
	c-0.672,2.838-1.344,5.646-2.137,8.423c-2.228,7.858-4.791,15.564-7.752,23.102c-0.488,1.282-0.915,2.625-1.434,3.922
	c-3.814,9.247-8.118,18.234-12.971,26.886c-0.244,0.442-0.549,0.885-0.793,1.343c-4.608,8.072-9.644,15.823-15.076,23.3
	c-0.854,1.175-1.77,2.334-2.624,3.494c-5.433,7.217-11.23,14.206-17.395,20.798c-0.458,0.458-0.855,0.946-1.282,1.404
	c-14.038,14.74-29.785,27.74-46.997,38.727l0,0c-0.030,0.031-0.061,0.031-0.061,0.031c-9.4,6.012-19.227,11.322-29.42,16.052
	c-0.488,0.229-0.977,0.488-1.465,0.717c-10.254,4.684-20.873,8.712-31.859,12.008c-0.428,0.122-0.886,0.214-1.344,0.336
	c-9.582,2.838-19.531,4.913-29.602,6.577c-2.502,0.412-5.005,0.824-7.568,1.144C 278.064,473.023, 267.154,474, 256,474
	s-22.064-0.977-32.822-2.411c-2.548-0.32-5.050-0.732-7.583-1.144c-10.055-1.664-19.989-3.739-29.602-6.577
	c-0.442-0.122-0.9-0.214-1.343-0.336c-10.956-3.296-21.576-7.324-31.845-12.008c-0.504-0.229-0.977-0.488-1.48-0.717
	c-10.178-4.73-20.020-10.040-29.419-16.052c0,0-0.015,0-0.030-0.031l-0.031,0 c-7.66-4.883-14.984-10.223-22.034-15.869
	c-2.289-1.846-4.379-3.906-6.607-5.829c-4.593-3.967-9.17-7.935-13.474-12.207c-2.625-2.625-5.020-5.432-7.538-8.179
	c-3.54-3.845-7.080-7.706-10.376-11.78c-2.64-3.266-5.066-6.668-7.538-10.071c-2.777-3.815-5.539-7.629-8.103-11.627
	c-2.487-3.814-4.761-7.767-7.034-11.749c-2.151-3.784-4.257-7.599-6.21-11.49c-2.197-4.364-4.242-8.789-6.18-13.291
	c-1.602-3.738-3.097-7.507-4.532-11.337c-1.816-4.852-3.51-9.72-5.020-14.709c-1.129-3.692-2.075-7.431-3.037-11.185
	c-1.328-5.264-2.609-10.528-3.601-15.915c-0.198-1.083-0.534-2.105-0.717-3.189c-1.145-6.729-2.075-13.55-2.747-20.417
	C 6.474,238.648, 6,231.385, 6,224c0-9.918, 0.732-19.653, 1.862-29.267c 0.351-2.99, 0.9-5.92, 1.343-8.85
	c 1.038-6.684, 2.273-13.306, 3.814-19.837c 0.748-3.143, 1.557-6.256, 2.411-9.369c 1.846-6.561, 3.967-13, 6.317-19.348
	c 0.931-2.502, 1.755-5.066, 2.762-7.538c 3.555-8.697, 7.477-17.242, 11.947-25.421c 0.122-0.244, 0.29-0.458, 0.412-0.672
	c 4.364-7.934, 9.231-15.533, 14.389-22.918c 1.48-2.105, 3.067-4.090, 4.608-6.135c 4.12-5.523, 8.438-10.863, 13-16.021
	c 1.801-2.045, 3.632-4.059, 5.493-6.072c 5.036-5.311, 10.315-10.377, 15.778-15.26c 1.48-1.281, 2.869-2.686, 4.364-3.967
	c 7.279-6.164, 14.862-11.963, 22.812-17.273l 0.015-0.030c 0.031-0.030, 0.046-0.030, 0.077-0.061c 8.911-5.951, 18.356-11.14, 28.015-15.931
	c 2.030-1.007, 4.044-1.983, 6.088-2.93c 9.964-4.607, 20.172-8.758, 30.777-12.023c 0.046,0, 0.107-0.031, 0.153-0.031
	c 10.285-3.174, 20.95-5.432, 31.753-7.263c 2.686-0.458, 5.387-0.885, 8.103-1.251C 233.341-24.963, 244.541-26, 256-26
	c 11.154,0, 22.064,0.977, 32.822,2.381c 2.563,0.365, 5.066,0.763, 7.568,1.159c 10.070,1.679, 20.020,3.754, 29.602,6.592
	c 0.458,0.122, 0.916,0.214, 1.344,0.336c 10.986,3.296, 21.605,7.324, 31.859,11.993c 0.488,0.244, 0.977,0.488, 1.465,0.732
	c 10.193,4.73, 20.020,10.070, 29.42,16.053l 0.061,0 l0,0.030 c 17.212,10.986, 32.959,23.986, 46.997,38.727c 0.427,0.458, 0.824,0.946, 1.282,1.403
	c 6.164,6.592, 11.962,13.551, 17.395,20.783c 0.854,1.159, 1.771,2.35, 2.624,3.51c 5.433,7.477, 10.468,15.228, 15.076,23.314
	c 0.244,0.428, 0.549,0.855, 0.793,1.312c 4.853,8.667, 9.156,17.67, 12.971,26.887c 0.519,1.281, 0.945,2.654, 1.434,3.937
	c 2.961,7.538, 5.524,15.228, 7.752,23.102c 0.793,2.777, 1.465,5.585, 2.137,8.423c 1.709,6.866, 3.051,13.855, 4.15,20.936
	c 0.427,2.868, 0.977,5.706, 1.312,8.605c 1.19,9.781, 1.923,19.684, 1.923,29.785S 505.253,243.989, 504.062,253.785z M 256,224
	l 117.294-184.326C 339.359,17.976, 299.198,5.25, 256,5.25c-44.845,0-86.548,13.611-121.292,36.865L 256,224L 37.25,224 
	c0,77.454, 40.558,145.447, 101.44,184.326L 256,224L 373.295,408.326c 60.913-38.879, 101.44-106.873, 101.44-184.326L 256,224 z"  />
<glyph unicode="&#xe067;" d="M 275.712,102.087c-51.854,51.513, 58.084,114.404, 72.42,69.604c 10.297-32.313, 23.865-41.472, 42.468-41.671
		c 18.574-0.228, 89.714,89.202, 89.714,89.202L 406.756,289.792c-0.284,15.815-0.967,30.379, 36.779,54.699c 71.168,66.247-76.089,143.531-95.659,85.874
		c-8.875-26.084-28.046-50.29-37.973-50.29c-9.899,0-76.117,72.363-76.117,72.363S 174.535,401.18, 172.316,392.363
		C 170.069,383.573, 181.959,358.827, 212.452,348.16c 43.292-15.104-17.522-131.356-67.3-76.516C 118.528,313.97, 99.556,306.46, 86.386,302.706
		C 73.188,298.923, 24.007,239.189, 24.007,239.189l 73.842-75.975c-7.225-9.956-18.318-20.139-35.84-26.14c-51.627-17.579, 13.625-145.408, 72.903-81.692
		c 14.962,23.182, 25.771,30.123, 35.669,32.142l 86.642-90.169c0,0, 41.614,37.291, 47.076,46.848C 309.845,53.788, 313.913,75.833, 275.712,102.087z"  />
<glyph unicode="&#xe033;" d="M 387.584,71.111c 0.683,7.31, 0.939,15.047, 0.54,23.438c-4.892,90.88-51.541,118.841-76.601,133.831
	c-3.584,2.133-8.22,4.921-10.411,6.684c 0.256,11.776, 2.759,13.511, 14.023,21.39c 41.87,23.609, 60.729,81.493, 69.006,121.486
	c 19.94,0.796, 36.011,16.953, 36.011,37.092c0,20.679-16.782,37.404-37.376,37.404L 133.404,452.437 c-20.679,0-37.404-16.725-37.404-37.404
	c0-20.651, 16.725-37.376, 37.404-37.376L 136.533,377.657 C 144.754,337.778, 163.385,280.263, 204.43,257.195C 216.747,248.604, 219.278,246.869, 219.534,235.093
	C 217.344,233.301, 212.679,230.514, 209.124,228.38c-25.060-14.99-71.737-42.923-76.629-133.831c-0.427-8.021-0.313-15.559, 0.341-22.556
	c-20.366-0.398-36.807-16.839-36.807-37.319c0-20.679, 16.725-37.348, 37.404-37.348l 249.259,0 c 20.651,0, 37.348,16.725, 37.348,37.348
	C 420.068,53.646, 405.788,68.608, 387.584,71.111z M 165.774,377.657l 189.099,0 c-6.514-28.217-18.119-60.9-36.978-82.034l-115.484,0 
	C 183.808,316.473, 172.288,349.269, 165.774,377.657z M 358.969,72.107l-14.649,0 c-19.456,28.956-54.329,75.748-78.82,79.218
	c-22.414,3.214-61.98-48.242-83.598-79.218L 161.593,72.107 c-0.711,6.315-1.109,13.113-0.683,20.935c 4.068,75.776, 39.424,96.882, 62.805,110.876
	c 11.093,6.628, 21.134,13.227, 23.353,24.462c 5.234-4.352, 10.126-6.912, 14.137-6.258c 3.755,0.597, 7.908,3.129, 12.174,6.741
	c 2.048-11.548, 12.26-18.233, 23.438-24.946c 23.381-13.995, 58.738-35.1, 62.834-110.876C 360.107,85.22, 359.708,78.421, 358.969,72.107z"  />
<glyph unicode="&#xe068;" d="M 447.573,335.132c-5.916,21.675-25.316,39.083-50.631,46.478c-19.541,41.728-91.136,70.827-140.26,70.827
	c-25.742,0-49.55-8.021-69.262-21.561C 120.007,452.437, 68.864,394.268, 58.254,351.118c-20.793-17.067-34.276-42.126-34.276-70.457
	c0-51.342, 76.43-92.985, 129.792-92.985c 7.196,0, 14.137,0.853, 20.878,2.304c 0.853-0.37, 1.678-0.768, 2.532-1.109l 34.105-42.98
	c-2.731-26.766-5.945-83.655-10.724-105.529c-5.575-25.6-57.287-43.065-57.287-43.065l 73.159,11.691l 26.51-10.638l 25.429,10.638l 82.716-11.691
	c-15.9,0-50.062,30.578-56.149,47.445c-5.433,15.132-10.069,61.099-14.080,76.772l 52.821,64.341c 5.831-2.162, 12.26-3.356, 19.001-3.356
	c 16.953,0, 61.383,7.566, 70.087,19.001c 33.394,14.478, 56.263,41.956, 56.263,73.899C 479.118,298.724, 467.058,319.801, 447.573,335.132z M 212.679,159.403
	l-18.062,24.462c 5.319-0.91, 10.78-1.451, 16.441-1.451c 1.308,0, 2.56,0.284, 3.868,0.313C 214.187,175.104, 213.447,167.31, 212.679,159.403z
	 M 276.878,138.325c-3.584,15.616-6.514,30.862-8.903,45.198c 5.547-1.223, 11.264-2.076, 17.323-2.076c 9.159,0, 17.835,1.564, 25.685,4.238
	L 276.878,138.325z"  />
<glyph unicode="&#xe06f;" d="M 339.103,57.119L 257.617,57.119 l-207.217,0 L 50.4,413.292 L 384.052,413.292 L 384.052,322.424 c 6.994-4.928, 13.634-10.448, 19.802-16.618
	c 8.010-7.997, 14.949-16.766, 20.846-26.104L 424.7,418.56 c0,19.542-15.838,35.383-35.38,35.383L 45.131,453.943 c-19.542,0-35.385-15.843-35.385-35.383
	l0-366.701 c0-19.544, 15.843-35.388, 35.385-35.388l 344.189,0 c 3.979,0, 7.797,0.694, 11.365,1.9l-38.813,38.748L 339.103,57.119 z M 494.319,46.341
	l-88.087,87.957c-0.208,0.187-0.452,0.229-0.613,0.431c 12.090,19.589, 18.676,42.119, 18.676,65.715c0,33.592-13.075,65.172-36.854,88.919
	c-23.737,23.737-55.299,36.812-88.903,36.812c-33.602,0-65.144-13.073-88.898-36.812c-23.763-23.768-36.838-55.345-36.838-88.937
	c0-33.571, 13.075-65.164, 36.835-88.903c 23.757-23.778, 55.338-36.89, 88.922-36.89c 22.268,0, 43.588,5.882, 62.402,16.709
	c 0.39-0.45, 0.538-1.021, 0.964-1.453l 88.106-87.96c 6.126-6.108, 14.133-9.169, 22.182-9.169c 8.010,0, 16.072,3.064, 22.203,9.211
	C 506.615,14.231, 506.615,34.103, 494.319,46.341z M 357.839,141.103c-31.661-31.749-86.902-31.749-118.623,0.021
	c-15.851,15.83-24.573,36.89-24.573,59.301c0,22.416, 8.722,43.478, 24.573,59.343c 15.854,15.833, 36.911,24.576, 59.322,24.576
	s 43.473-8.722, 59.298-24.576c 15.872-15.862, 24.62-36.942, 24.62-59.343C 382.451,178.016, 373.711,156.954, 357.839,141.103z
	 M 298.538,349.406c 18.032,0, 35.549-3.21, 51.943-9.315L 350.481,378.45 l-1.268,0 l-4.608,0 L 252.432,378.45 L 85.244,378.45 l0-52.271 l 79.287,0 l 54.113,0 
	C 242.311,341.279, 269.793,349.406, 298.538,349.406z M 140.402,294.245L 85.242,294.245 l0-52.268 L 119.475,241.977 l 35.978,0 c 5.484,18.988, 14.715,36.718, 27.365,52.268
	L 140.402,294.245 z M 114.873,206.174L 85.242,206.174 l-0.639,0 l0-115.179 l 112.978,0 c-1.463,1.354-2.942,2.682-4.361,4.101
	c-28.144,28.116-43.642,65.528-43.642,105.332c0,1.923, 0.068,3.836, 0.138,5.746L 114.873,206.174 z" horiz-adv-x="512"  />
<glyph unicode="&#xe043;" d="M 368,352l 32,0 c 8.848,0, 16,7.168, 16,16L 416,464 c0,8.832-7.152,16-16,16l-32,0 c-8.848,0-16-7.168-16-16l0-96 
	C 352,359.168, 359.152,352, 368,352z M 112,352l 32,0 c 8.832,0, 16,7.168, 16,16L 160,464 c0,8.832-7.168,16-16,16l-32,0 c-8.832,0-16-7.168-16-16l0-96 
	C 96,359.168, 103.168,352, 112,352z M 480,416l-32,0 l0-80 c0-8.832-7.152-16-16-16l-96,0 c-8.848,0-16,7.168-16,16L 320,416 L 192,416 l0-80 
	c0-8.832-7.168-16-16-16L 80,320 c-8.832,0-16,7.168-16,16L 64,416 L 32,416 C 14.336,416,0,401.664,0,384l0-384 c0-17.664, 14.336-32, 32-32l 448,0 
	c 17.664,0, 32,14.336, 32,32L 512,384 C 512,401.664, 497.664,416, 480,416z M 480,16c0-8.848-7.152-16-16-16L 48,0 c-8.832,0-16,7.152-16,16L 32,272 
	c0,8.832, 7.168,16, 16,16l 416,0 c 8.848,0, 16-7.168, 16-16L 480,16 z M 109.462,228.863l 64.163,0 L 173.625,199.5 l-64.163,0 L 109.462,228.863 z M 223.911,228.863l 64.162,0 
	L 288.073,199.5 l-64.162,0 L 223.911,228.863 z M 338.36,228.863l 64.178,0 L 402.538,199.5 L 338.36,199.5 L 338.36,228.863 z M 109.462,158.363l 64.163,0 L 173.625,129 l-64.163,0 L 109.462,158.363 z
	 M 223.911,158.363l 64.162,0 L 288.073,129 l-64.162,0 L 223.911,158.363 z M 338.36,158.363l 64.178,0 L 402.538,129 L 338.36,129 L 338.36,158.363 z M 109.462,87.898l 64.163,0 L 173.625,58.5 l-64.163,0 
	L 109.462,87.898 z M 223.911,87.898l 64.162,0 L 288.073,58.5 l-64.162,0 L 223.911,87.898 z M 338.36,87.898l 64.178,0 L 402.538,58.5 L 338.36,58.5 L 338.36,87.898 z"  />
<glyph unicode="&#xe044;" d="M 372.364,390q-15.273-23.091 -38-39.636l0-10 q0-25.455 -6.455-51.182t-18.545-50t-31-45.364t-42.364-36.818t-54.091-24.818t-64.636-9.091q-68.909,0 -117.273,31.091q 8.364-1.273 18.182-1.273q 25.455,0 49.818,9.818t 44.909,26.364q-24.545,0.182 -44.273,15.182t-26.818,37.909q 7.636-1.455 14.182-1.455q 10.545,0 20.364,2.727q-26.364,5.273 -43.818,26.273t-17.455,48.636l0,0.909 q 16.364-8.909 34.545-9.455q-15.818,10.545 -25,27.273t-9.182,36q0,18.727 10.364,37.091q 28.727-34.909 69.455-55.364t 87.818-23q-1.636,7.091 -1.636,17.636q0,31.636 22.273,53.909t 53.909,22.273q 32.545,0 56.182-24q 26,5.273 48.182,18.545q-8.727-27.636 -33.636-42.364q 22.727,2.545 44,12.182z" horiz-adv-x="372.364"  />
<glyph unicode="&#xe069;" d="M 194.727,456.727q 29.818,0 55.545-10.182t 43-27.182t 27.091-39.182t 9.818-45.818q0-41.636 -14.364-75t-40.727-52.455t-60-19.091q-17.091,0 -31.909,7.636t-20.636,18.545q-12.182-49.091 -15.091-58.545q-4-15.091 -13.727-32.545t-15.545-25.455t-9.091-11.818q-1.455-1.636 -3.182-1.182t-2.091,2.091q0,0.182 -0.636,5.091t-1.182,10.273t-0.909,14t-0.273,16.636 t 1,17.636t 2.909,17.818l 27.091,116.364q-6.364,13.818 -6.364,34q0,23.818 11.818,39.545t 29.091,15.727q 14,0 21.455-9t 7.455-23q0-8.545 -3.182-20.909t-8.364-28.818t-7.545-26.091q-3.818-16.909 6.636-29.182t 27.545-12.273q 19.818,0 35.364,15.636t 23.909,41.455t 8.364,56.727q0,36.364 -23.455,59.182t-65.273,22.818q-23.636,0 -43.818-8.364t-33.545-22.545 t-20.818-32.636t-7.455-38.636q0-25.091 14.182-42.364q 2.909-3.636 3.455-5.636t-0.364-6q-0.545-2.909 -4.364-17.091q-0.909-4.182 -3.818-5.636t-6.909,0q-21.455,9.091 -32.545,31.091t-11.091,50.727q0,18.545 6,37.182t 18.545,36.091t 30.182,30.818t 43,21.455t 54.818,8.091z" horiz-adv-x="372.364"  />
<glyph unicode="&#xe06a;" d="M 7.818,324.909l 77.455,0 l0-240.545 l-77.455,0 l0,240.545 zM 209.455,84.364l0,139.636 q0,22.364 12.273,34.455t 30.818,12.091q 18.727,0 30.455-13.364t 11.727-41l0-131.818 l 77.636,0 l0,139.636 q0,51.273 -25.636,79.909t-67.455,28.636q-22.182,0 -39.818-11.091t-30-29.818l-2.545,33.273l-76.364,0 l 1.273-54.364l0-186.182 l 77.636,0 zM 46.182,363.636l-0.545,0 q-20.182,0 -32.909,12.273t-12.727,30.455 q0,18.364 13,30.455t 33.909,12.091q 20.545,0 33.182-12.091t 13-30.455q0-18.364 -12.909-30.545t-34-12.182z" horiz-adv-x="372.364"  />
<glyph unicode="&#xe06b;" d="M 372.364,371.455l0-15.636 l-62,0 l0-62 l-15.636,0 l0,62 l-62,0 l0,15.636 l 62,0 l0,62 l 15.636,0 l0-62 l 62,0 zM 161.636,244.727q 18.909-13.818 26.455-28t 7.545-35.455q0-13.455 -6.455-25.909t-18.182-22.364t-30.273-15.909t-41.091-6q-27.091,0 -49.636,6.818t-36.273,20.091t-13.727,30.364q0,27.455 28.091,48.909t 67.545,21.455l 16.909,0 q-12.909,12.545 -12.909,26.727q0,10 4.727,18.364 q-3.091-0.364 -9.091-0.364q-32.727,0 -53.455,20.364t-20.727,50.364q0,18.727 12,35.364t 31.636,26.364t 41.273,9.727l 97.455,0 l-22-15.818l-31.091,0 q 14.909-5.636 23.182-21.182t 8.273-35q0-29.636 -27.455-50.727q-11.455-9.273 -15-14.636t-3.545-13.364q0-6.182 8.636-15.364t 17.182-14.818zM 109.455,293.455q 18.727-0.727 29.727,16.364t 7.727,41.818q-3.091,24.727 -18.727,42.182 t-34.727,18q-18.727,0.727 -29.727-16t-7.727-41.273q 3.273-24.727 19-42.636t 34.455-18.455zM 99.636,126.545q 37.091,0 53.818,13.909t 16.727,37q0,3.091 -0.727,10q-1.091,3.818 -3.364,7.545t-4,6.091t-6.636,6.273t-6.818,5.364t-9.091,6.455t-9.364,6.455q-10.545,3.091 -24.182,4q-18.545,0 -34.818-6.818t-26.091-18.636t-9.818-25.455 q0-21.636 18.273-36.909t 46.091-15.273z" horiz-adv-x="372.364"  />
<glyph unicode="&#xe06c;" d="M 116.364,142.545q0-24.182 -17.091-41.182t-41.091-17q-24.364,0 -41.273,16.909t-16.909,41.273q0,24 17,41.091t 41.182,17.091q 23.818,0 41-17.182t 17.182-41zM 372.364,92.182q0-3.273 -2.273-5.545t-5.545-2.273l-54.182,0 q-3.273,0 -5.545,2.273t-2.273,5.545q0,40.182 -10.545,78.364t-29.545,70.545t-46.182,59.545t-59.545,46.182t-70.545,29.545 t-78.364,10.545q-3.273,0 -5.545,2.273t-2.273,5.545l0,54.182 q0,3.273 2.273,5.545t 5.545,2.273q 49.636,0 96.818-13.091t 87.182-36.636t 73.636-57.182t 57.182-73.636t 36.636-87.182t 13.091-96.818zM 256,92.182q0-3.273 -2.273-5.545t-5.545-2.273l-54.182,0 q-3.273,0 -5.545,2.273t-2.273,5.545q0,36.364 -14.091,69.364t-38,56.909t-56.909,38 t-69.364,14.091q-3.273,0 -5.545,2.273t-2.273,5.545l0,54.182 q0,3.273 2.273,5.545t 5.545,2.273q 33.636,0 65.818-8.909t 59.455-24.909t 50.182-38.909t 38.909-50.182t 24.909-59.455t 8.909-65.818z" horiz-adv-x="372.364"  />
<glyph unicode="&#xe06e;" d="M 139.636,84.364l0,170.727 l-46.545,0 l0,62 l 46.545,0 l0,54.364 q0,16.909 5.455,31.909t 16.364,27.091t 29.273,19.182t 42,7.091q 11.636,0 23.273-0.909t 17.455-1.636l 5.818-0.909l-2.545-58.545l-40.182,0 q-16.364,0 -21.727-7.727t-5.364-23.364l0-46.545 l 69.818,0 l-4.727-62l-65.091,0 l0-170.727 l-69.818,0 z" horiz-adv-x="372.364"  />
<glyph unicode="&#xe070;" d="M 372.364,386.909l-186.182-139.636l-186.182,139.636q0,9.636 6.818,16.455t 16.455,6.818l 325.818,0 q 9.636,0 16.455-6.818t 6.818-16.455zM0,345.091l 186.182-139.636l 186.182,139.636l0-190.909 q0-9.636 -6.818-16.455t-16.455-6.818l-325.818,0 q-9.636,0 -16.455,6.818t-6.818,16.455l0,190.909 z" horiz-adv-x="372.364"  />
<glyph unicode="&#xe071;" d="M 256,480C 114.615,480,0,365.385,0,224s 114.615-256, 256-256s 256,114.615, 256,256S 397.385,480, 256,480z M 288,64l-64,0 l0,64 l 64,0 L 288,64 z M 288,192l-64,0 L 224,384 l 64,0 L 288,192 z"  />
<glyph unicode="&#xe035;" d="M 479.050,406.918c-10.951,11.060-43.146,39.203-99.104,39.203c-67.456-0.108-120.951-70.304-122.922-72.932
	c-1.97,2.574-55.465,72.823-122.977,72.932c-55.958,0-88.099-28.143-99.049-39.203C-91.757,278.85, 252.972,3, 256.969-0.12
	C 261.075,3, 605.75,278.85, 479.050,406.918z"  />
<glyph unicode="&#xe072;" d="M 382.647,473L 128.783,473 c-17.568,0-31.695-14.187-31.695-31.694l0-436.61 c0-17.508, 14.127-31.695, 31.695-31.695
		l 253.864,0 c 17.508,0, 31.756,14.188, 31.756,31.695L 414.403,441.306 C 414.403,458.813, 400.155,473, 382.647,473z M 255.745-5.085
		c-25.657,0-46.486,20.769-46.486,46.366c0,25.658, 20.829,46.486, 46.486,46.486c 25.598,0, 46.336-20.828, 46.336-46.486
		C 302.081,15.684, 281.343-5.085, 255.745-5.085z M 368.762,127.733c0-10.867-8.693-19.681-19.561-19.681L 162.41,108.052 
		c-10.927,0-19.681,8.874-19.681,19.681L 142.729,407.738 c0,10.867, 8.814,19.682, 19.681,19.682l 186.791,0 c 10.867,0, 19.561-8.875, 19.561-19.682
		L 368.762,127.733 zM 255.745,60.238c-10.504,0-18.956-8.452-18.956-18.957c0-10.384, 8.452-18.896, 18.956-18.896
		c 10.385,0, 18.896,8.513, 18.896,18.896C 274.642,51.786, 266.13,60.238, 255.745,60.238z"  />
<glyph unicode="&#xe073;" d="M 497.841,225.96c0-54.643-13.647-101.076-41.649-142.054c-46.451-67.619-124.292-108.562-206.936-108.562
	c-71.715,0-132.484,26.624-180.295,77.171C 23.199,100.979,0,161.077,0,232.792c0,66.931, 25.953,128.388, 73.746,175.51C 121.538,455.424, 181.654,480, 250.615,480
	c 103.812,0, 194.631-63.523, 233.56-167.318l-135.221,0 c-30.049,31.409-61.458,47.104-99.699,47.104c-71.009,0-127.011-58.033-127.011-127.682
	c0-77.171, 60.081-136.58, 127.011-136.58c 45.074,0, 85.363,23.199, 109.268,65.554l-138.646,0 l0,96.998 L 496.463,258.074 C 497.152,247.128, 497.841,236.2, 497.841,225.96z
	 M 527.907-15.122L 527.907,470.449 l 161.174,0 c 51.2,0, 90.13-3.425, 122.915-26.659c 43.043-30.031, 65.571-75.794, 65.571-135.892c0-78.53-40.978-137.234-109.956-156.372
	l 118.819-166.63l-146.82,0 l-92.884,156.39l0-156.39 L 527.907-15.104 z M 669.943,246.457c 58.739,0, 87.411,15.025, 87.411,58.721c0,40.289-25.265,56.691-77.842,56.691
	l-32.768,0 l0-115.412 L 669.943,246.457 z M 969.763,408.302c 47.81,47.122, 107.891,71.009, 176.887,71.009c 64.883,0, 126.323-25.282, 173.444-71.715
	c 49.17-48.481, 75.14-110.645, 75.14-176.887c0-69.632-24.594-131.796-70.338-178.935c-47.122-49.17-111.334-75.794-178.935-75.794
	c-71.715,0-133.173,25.935-180.966,76.482c-45.762,48.481-68.979,108.562-68.979,180.295C 896,299.723, 921.953,361.181, 969.763,408.302z M 1145.962,96.212
	c 69.65,0, 126.34,56.002, 126.34,135.203c0,71.027-56.691,127.7-124.981,127.7c-72.386,0-129.077-56.673-129.077-127.7
	C 1018.244,154.933, 1079.031,96.212, 1145.962,96.212z M 1545.481,470.449l0-299.132 c0-54.625, 17.073-82.626, 57.362-82.626c 41.666,0, 61.458,27.313, 61.458,82.626
	L 1664.3,470.449 l 118.802,0 l0-303.916 c0-118.837-72.386-189.158-180.966-189.158c-109.956,0-176.181,67.584-176.181,189.158L 1425.955,470.449 L 1545.481,470.449 z M 1817.406-15.122L 1817.406,470.449 l 161.174,0 
	c 51.182,0, 90.112-3.425, 122.915-26.659c 43.043-30.031, 65.589-75.794, 65.589-136.58c0-62.835-28.69-114.723-77.171-144.084
	c-30.755-18.432-68.996-21.839-119.543-21.839l-34.163,0 l0-156.39 L 1817.406-15.104 z M 1959.442,246.457c 58.739,0, 87.411,15.025, 87.411,58.721
	c0,40.289-25.265,56.691-77.842,56.691l-31.409,0 l0-115.412 L 1959.442,246.457 z M 2256.525,408.302c 47.81,47.122, 107.891,71.009, 176.905,71.009
	c 64.865,0, 126.305-25.282, 173.427-71.715c 49.17-48.481, 75.158-110.645, 75.158-176.887c0-69.632-24.611-131.796-70.338-178.935
	c-47.139-49.17-111.351-75.794-178.935-75.794c-71.715,0-133.173,25.935-180.966,76.482c-45.762,48.481-68.996,108.562-68.996,180.295
	C 2182.762,299.723, 2208.715,361.181, 2256.525,408.302z M 2432.742,96.212c 69.632,0, 126.323,56.002, 126.323,135.203c0,71.027-56.691,127.7-124.981,127.7
	c-72.386,0-129.077-56.673-129.077-127.7C 2305.006,154.933, 2365.793,96.212, 2432.742,96.212z M 2705.267-15.122L 2705.267,470.449 l 107.185,0 l 178.264-269.753L 2990.716,470.449 l 118.802,0 
	l0-485.588 l-104.483,0 l-180.966,270.442l0-270.442 L 2705.267-15.122L 2705.267-15.122z" horiz-adv-x="3107.31"  />
<glyph unicode="&#xe06d;" d="M 512,32L 512,224 l-128,0 c0,70.56, 57.376,128, 128,128L 512,416 c-105.872,0-192-86.128-192-192l0-192 L 512,32 zM 192,32L 192,224 L 64,224 c0,70.56, 57.376,128, 128,128L 192,416 C 86.128,416,0,329.872,0,224l0-192 L 192,32 z"  />
<glyph unicode="&#xe074;" d="M0,160L 96,64L 256,224L 416,64L 512,160L 256.001,416 z"  />
<glyph unicode="&#xe075;" d="M 192,480L 96,384L 256,224L 96,64L 192-32L 448,224 z"  />
<glyph unicode="&#xe076;" d="M 320-32L 416,64L 256,224L 416,384L 320,480L 64,224 z"  />
<glyph unicode="&#xe077;" d="M 512,288L 416,384L 256,224L 96,384L0,288L 256,32.001 z"  />
<glyph unicode="&#xe078;" d="M 481.582,197.879C 463.907,247.706, 444,303.934, 443.273,339.523l 22.518,0 c0,45.294-79.275,106.693-79.275,106.693
	l-11.319-16.102c 22.651-22.647, 45.294-62.286, 45.294-90.592l 0.142,0 c 0.682-39.367, 21.27-97.651, 39.604-149.208
	c 14.538-40.821, 28.213-79.396, 28.213-97.795c0-35.438-21.195-56.636-56.633-56.636c-31.218,0-56.61,25.403-56.61,56.636L 375.207,217.082 
	c0,84.228-30.788,101.924-56.621,101.924L 318.586,432.239 l0,0c0,25.003-20.314,45.294-45.307,45.294c-0.046,0-0.061,0-0.104,0L 69.441,477.533 
	c-25.002,0-45.294-20.292-45.294-45.294l0-430.322 c-12.53,0-22.646-10.133-22.646-22.65l 339.729,0 c0,12.518-10.131,22.65-22.645,22.65
	L 318.585,296.348 c 28.088,0, 33.97-43.091, 33.97-79.273L 352.555,92.52 c0-43.716, 35.578-79.276, 79.276-79.276c 47.422,0, 79.27,31.838, 79.27,79.276
	C 511.084,114.812, 497.415,153.343, 481.582,197.879z M 69.441,432.239l 203.836,0 l0-135.891 L 69.441,296.348 L 69.441,432.239 z"  />
<glyph unicode="&#xe079;" d="M 101.348,128.37c0,0, 12.516-115.968, 23.467-126.948s 111.673-2.162, 70.087,54.756
	c-41.614,56.917-34.048,85.931-34.048,85.931l 19.2,4.466c 13.54,3.1, 24.661,11.179, 31.801,21.845l 198.798-7.168
	c 4.21-0.114, 8.22-1.792, 11.292-4.665l 35.982-33.451c 9.614-1.223, 18.375,5.547, 19.598,15.161c 0.284,2.048, 0.171,4.153-0.341,6.172
	l-63.061,273.209c-2.19,9.444-11.634,15.303-21.020,13.141c-2.020-0.484-3.954-1.252-5.632-2.389l-21.874-47.559
	c-1.593-3.47-4.267-6.315-7.652-8.107l-172.373-92.672c-11.036,6.258-24.32,8.533-37.66,5.49L 64.74,266.325
	C 36.466,259.84, 18.83,231.566, 25.372,203.292l 8.448-36.58c 6.542-28.302, 34.731-45.909, 63.033-39.396L 101.348,128.37z M 101.348,128.37"  />
<glyph unicode="&#xe02d;" d="M 67.556,444.672l 367.047,0 c 24.405,0, 44.231-21.589, 44.231-48.213c0-26.624-19.797-48.213-44.231-48.213L 67.556,348.245 
		c-24.462,0-44.26,21.589-44.26,48.213l0,0C 23.296,423.083, 43.122,444.672, 67.556,444.672zM 67.556,279.097l 367.047,0 c 24.405,0, 44.231-21.589, 44.231-48.213s-19.797-48.185-44.231-48.185L 67.556,182.699 
		c-24.462,0-44.26,21.561-44.26,48.185l0,0C 23.296,257.508, 43.122,279.097, 67.556,279.097zM 67.556,113.465l 367.047,0 c 24.405,0, 44.231-21.589, 44.231-48.213c0-26.681-19.797-48.185-44.231-48.185L 67.556,17.067 
		c-24.462,0-44.26,21.532-44.26,48.185l0,0C 23.296,91.876, 43.122,113.465, 67.556,113.465z"  />
<glyph unicode="&#xe07a;" d="M 209.863,444.672l 224.74,0 c 24.405,0, 44.231-21.589, 44.231-48.213c0-26.624-19.797-48.213-44.231-48.213L 209.863,348.245 
		c-24.462,0-44.26,21.589-44.26,48.213l0,0C 165.604,423.083, 185.429,444.672, 209.863,444.672zM 209.863,279.097l 224.74,0 c 24.405,0, 44.231-21.589, 44.231-48.213s-19.797-48.185-44.231-48.185L 209.863,182.699 
		c-24.462,0-44.26,21.561-44.26,48.185l0,0C 165.604,257.508, 185.429,279.097, 209.863,279.097zM 209.863,113.465l 224.74,0 c 24.405,0, 44.231-21.589, 44.231-48.213c0-26.681-19.797-48.185-44.231-48.185L 209.863,17.067 
		c-24.462,0-44.26,21.532-44.26,48.185l0,0C 165.604,91.876, 185.429,113.465, 209.863,113.465zM 67.641,444.672L 72.818,444.672 c 24.434,0, 44.26-21.589, 44.26-48.213c0-26.624-19.797-48.213-44.26-48.213L 67.641,348.245 
		c-24.462,0-44.26,21.589-44.26,48.213l0,0C 23.381,423.083, 43.207,444.672, 67.641,444.672zM 67.641,279.097L 72.818,279.097 c 24.434,0, 44.26-21.589, 44.26-48.213s-19.797-48.185-44.26-48.185L 67.641,182.699 
		c-24.462,0-44.26,21.561-44.26,48.185l0,0C 23.381,257.508, 43.207,279.097, 67.641,279.097zM 67.641,113.465L 72.818,113.465 c 24.434,0, 44.26-21.589, 44.26-48.213c0-26.681-19.797-48.185-44.26-48.185L 67.641,17.067 
		c-24.462,0-44.26,21.532-44.26,48.185l0,0C 23.381,91.876, 43.207,113.465, 67.641,113.465z"  />
<glyph unicode="&#xe07b;" d="M 489.42,351.874c-5.294,0-10.729-1.861-15.718-5.383L 384,283.184L 384,336 c0,26.4-21.6,48-48,48L 48,384 c-26.4,0-48-21.6-48-48l0-224 c0-26.4, 21.6-48, 48-48l 288,0 c 26.4,0, 48,21.6, 48,48l0,52.815 l 89.701-63.307c 4.989-3.521, 10.424-5.382, 15.717-5.383 c 0.001,0, 0.001,0, 0.003,0c 7.044,0, 13.477,3.248, 17.646,8.911c 3.228,4.385, 4.934,10.027, 4.934,16.318L 512.001,326.645 C 512,343.208, 500.641,351.874, 489.42,351.874z"  />
<glyph unicode="&#xe07c;" d="M 186.752,168.224l-41.216,120.32l-127.712-25.536l 39.296-21.984l-49.664-81.184
			c-25.824-47.616, 4.512-141.312, 105.248-144.832c 9.984-0.32, 114.592,0, 114.592,0l0,94.976 c0,0-109.792,0.704-115.2,0.512
			c-13.472-0.512-11.264,10.432-9.44,13.12c 10.368,15.2, 42.144,69.216, 42.144,69.216L 186.752,168.224zM 330.24,164.544l-86.976-98.112l 86.976-98.528l-0.384,47.744l 95.136-0.16
			c 54.112,2.72, 118.4,77.376, 68.96,165.216C 489.056,189.344, 434.336,278.528, 434.336,278.528l-81.056-49.376c0,0, 61.12-99.936, 64.128-104.384
			c 7.456-11.296-3.136-15.040-6.336-14.88c-18.336,0.928-80.832,0-80.832,0L 330.24,164.544 zM 258.784,280.832l 125.312-22.336l 39.552,124.032l-38.304-23.68L 334.304,441.888
			C 305.248,487.552, 217.696,504.288, 165.824,417.888C 160.704,409.344, 105.184,319.648, 105.184,319.648l 88.192-53.28c0,0, 55.872,90.624, 58.272,95.488
			C 257.792,373.92, 266.304,366.592, 267.744,363.712l 34.080-57.824L 258.784,280.832z"  />
<glyph unicode="&#xe07d;" d="M 6,473l0-500 l 437.5,0 l 62.5,62.5L 506,473 L 6,473 z M 350,4L 162,4 L 162,129 l 188,0 L 350,4 z M 412,223L 100,223 L 100,442 l 312,0 L 412,223 z M 256,35l-63,0 l0,63 l 63,0 L 256,35 
	z"  />
<glyph unicode="&#xe07e;" d="M 359-12.295L 359,47 L 212,47 l0,88 l 147,0 l0,58.588 l 147.059-102.941L 359-12.295z M 36,17l 235,0 l0-29 L 6-12 L 6,458 l 265.264,0 
	L 418,311.321L 418,223 l-29,0 l0,59 L 242,282 L 242,429 L 36,429 L 36,17 z M 271,311l 105.732,0 L 271,416.79L 271,311 z M 95,311l0-29 l 117,0 l0,29 L 95,311 z M 271,252L 95,252 l0-29 l 176,0 L 271,252 z M 271,194
	L 95,194 l0-30 l 176,0 L 271,194 z M 95,105l 88,0 l0,30 L 95,135 L 95,105 z"  />
<glyph unicode="&#xe07f;" d="M 410.243,28.2c-29.2,13.95-100.501,50-100.601,50l-0.249,45.6c 34.4,18.9, 62.65,49.3, 70.3,102.45
	c 12.799-1.55, 24.5,7.65, 26.148,20.55l 5.151,41.45c 1.55,12.5-7,23.85-19.151,26.1C 387.093,406.5, 332.043,468, 261.192,468
	c-52.299,0-69.95-11.4-78.399-20.8c-13.4-14.65-1.85-23.8-31.85-39.101c-27.1-13.8-38.050-49.6-37.9-95.45
	c-9.3-4.1-15.399-13.749-14.049-24.399l 5.15-41.45c 1.5-12.050, 11.849-20.5, 23.65-20.4c 8-50.451, 37.3-85.55, 72.75-103.95
	l-0.301-44.249c0,0-53.1-27-82.25-40.9c-38.15-18.25-68.55-31-68.55-69.3c0,0, 367.099,1.3, 413.5,0
	C 462.893,6.3, 448.393,10, 410.243,28.2z"  />
<glyph unicode="&#xe080;" d="M 6,385l0-322 l 500,0 L 506,385 L 6,385 z M 363.525,149.476c-23.976-34.925-64.175-56.050-106.85-56.050
	c-37.025,0-68.399,13.75-93.1,39.85c-23.625,25.025-35.625,56.050-35.625,93.1c0,34.55, 13.4,66.275, 38.075,90.625
	c 24.676,24.325, 55.725,37.2, 91.325,37.2c 53.625,0, 100.525-33.2, 120.601-86.2l-69.824,0 c-15.525,16-31.751,24.125-51.5,24.125
	c-36.675,0-65.575-30.075-65.575-66.025c0-39.85, 31.025-70.75, 65.575-70.75c 23.275,0, 44.1,11.649, 56.424,33.649L 241,189 l0,50 l 143.325,0 
	c 0.35-5, 0.7-11.087, 0.7-16.362C 385.050,194.412, 378.001,170.65, 363.525,149.476z"  />
<glyph unicode="&#xe081;" d="M 60,473l0-500 l 392,0 L 452,473 L 60,473 z M 349.228,151.729c-26.863,0-48.637,21.771-48.637,48.635
	c0,26.865, 21.818,48.591, 48.637,48.591c 26.863,0, 48.637-21.728, 48.637-48.591S 376.045,151.729, 349.228,151.729z"  />
<glyph unicode="&#xe082;" d="M 349.811,473L 68,473 l0-188 l 32,0 L 100,442 l 218,0 l0-157 l 157,0 l0-281 L 287,4 l0-31 l 219,0 L 506,316.842 L 349.811,473z M 350,317L 350,428.902 L 461.871,317L 350,317 zM 162,348L 287,348L 287,317L 162,317zM 162,285L 287,285L 287,254L 162,254zM 443,98L 285.678,98 c 0.58,5.188, 1.572,10.159, 1.572,15.5s-0.992,10.5-1.572,15.5L 443,129 l0,31 L 278.629,160 
		c-3.922,12-8.729,22-15.137,32L 443,192 l0,31 L 233.997,223 c-24.079,19.257-54.184,31.25-87.372,31.25C 68.942,254.25, 6,191.262, 6,113.625
		c0-77.697, 62.942-140.5, 140.625-140.5c 61.111,0, 112.641,38.875, 132.020,93.875L 443,67 L 443,98 z M 225,98l-63,0 l0-31.25 L 162,35 l-31,0 l0,63 L 68,98 l0,31 l 63,0 
		l0,63 l 31.22,0 L 162,192 l0-31.5 L 162,129 l 63,0 L 225,98 z"  />
<glyph unicode="&#xe083;" d="M 443.5,332.874l-75.012,0 l-12.604,63.11c-3.388,16.846-20.202,30.64-37.384,30.64l-125,0 c-17.182,0-33.997-13.794-37.384-30.64
	l-12.604-63.11L 68.5,332.874 c-34.363,0-62.5-28.138-62.5-62.5l0-187.5 c0-34.363, 28.137-62.5, 62.5-62.5l 375,0 c 34.363,0, 62.5,28.137, 62.5,62.5
	l0,187.5 C 506,304.736, 477.863,332.874, 443.5,332.874z M 186.756,389.819l 6.744,5.555l 125,0 l 6.744-5.493l 11.383-57.007L 175.373,332.874 
	L 186.756,389.819z M 349.75,145.374l-62.5,0 l0-62.5 l-62.5,0 l0,62.5 l-62.5,0 l0,62.5 l 62.5,0 l0,62.5 l 62.5,0 l0-62.5 l 62.5,0 L 349.75,145.374 z"  />
<glyph unicode="&#xe084;" d="M 333.148,187.374l-2.137,5.371l-6.713,16.754c-3.174,7.966-2.625,20.783, 1.221,28.473l 17.272,34.546
	c 3.845,7.69, 2.015,18.952-4.089,25.024l-40.406,40.405c-6.042,6.073-7.873,17.334-4.027,25.024l 53.771,102.966
	c 3.846,7.69, 0.977,10.346-6.408,5.951L 206.928,388.271c-7.385-4.395-10.254-14.313-6.409-22.003l 17.273-34.546
	c 3.845-7.69, 1.099-17.883-6.042-22.644L 144,263.912c-7.141-4.761-13-15.686-13-24.292l0-46.875 l0-14.74 
	C 56.354,159.054, 6,123.836, 6,83.37c0-60.395, 111.938-109.375, 250-109.375s 250,48.98, 250,109.375
	C 506,131.984, 433.43,173.152, 333.148,187.374z M 91.51,112.729c 10.254,9.368, 23.743,17.699, 39.551,24.779l 5.127-2.105l 4.211-10.132
	l0-1.861 c0-21.881, 48.401-46.295, 117.858-46.295c 69.459,0, 117.859,24.414, 117.859,46.295c0,5.493, 2.93,10.132, 7.141,13.062
	c 16.907-7.812, 30.823-17.15, 41.077-27.618c-11.963-53.681-89.355-81.727-166.077-81.727
	C 180.255,27.126, 101.337,56.088, 91.51,112.729z"  />
<glyph unicode="&#xe085;" d="M 186.725,154.664l 175.171-100.067C 326.008,5.83, 268.329-26, 203.144-26C 94.257-26, 6,62.257, 6,171.144
	c0,87.265, 56.824,161.225, 135.498,187.119L 186.725,154.664z M 334.797,459.886C 311.054,468.873, 285.419,474, 258.563,474
	c-23.621,0-46.326-3.906-67.566-10.925l 49.561-223.068L 334.797,459.886z M 367.512,406.846l-98.45-221.542L 463.459,74.22
	C 490.070,110.475, 506,155.061, 506,203.508C 506,295.945, 448.627,374.833, 367.512,406.846z"  />
<glyph unicode="&#x20;" horiz-adv-x="256" />
</font>
</defs>
</svg>
